<?xml version="1.0" encoding="UTF-8" standalone="no"?>
<!-- Created with Inkscape (http://www.inkscape.org/) -->

<svg
   width="210mm"
   height="297mm"
   viewBox="0 0 210 297"
   version="1.1"
   id="svg1"
   xml:space="preserve"
   inkscape:version="1.4 (e7c3feb100, 2024-10-09)"
   sodipodi:docname="eines_comunals_inkscape.svg"
   xmlns:inkscape="http://www.inkscape.org/namespaces/inkscape"
   xmlns:sodipodi="http://sodipodi.sourceforge.net/DTD/sodipodi-0.dtd"
   xmlns="http://www.w3.org/2000/svg"
   xmlns:svg="http://www.w3.org/2000/svg"><sodipodi:namedview
     id="namedview1"
     pagecolor="#ffffff"
     bordercolor="#000000"
     borderopacity="0.25"
     inkscape:showpageshadow="2"
     inkscape:pageopacity="0.0"
     inkscape:pagecheckerboard="0"
     inkscape:deskcolor="#d1d1d1"
     inkscape:document-units="mm"
     inkscape:zoom="0.34898021"
     inkscape:cx="-1222.1323"
     inkscape:cy="232.10485"
     inkscape:window-width="2560"
     inkscape:window-height="1368"
     inkscape:window-x="0"
     inkscape:window-y="0"
     inkscape:window-maximized="1"
     inkscape:current-layer="g6" /><defs
     id="defs1"><rect
       x="-2753.7378"
       y="-805.20325"
       width="647.60119"
       height="724.96947"
       id="rect7" /></defs><g
     inkscape:label="Layer 1"
     inkscape:groupmode="layer"
     id="layer1"><path
       style="fill:#000000;stroke-width:0.506552"
       d=""
       id="path4"
       transform="scale(0.26458333)" /><text
       xml:space="preserve"
       transform="scale(0.26458333)"
       id="text7"
       style="fill:#e2e2e2;text-orientation:auto;text-align:start;writing-mode:lr-tb;direction:ltr;fill-opacity:1;stroke:#26412e;stroke-opacity:1;stroke-width:18.38740003;stroke-dasharray:none;white-space:pre;shape-inside:url(#rect7)" /><g
       id="g10"
       inkscape:export-filename="eines_comunals.png"
       inkscape:export-xdpi="96"
       inkscape:export-ydpi="96"><g
         id="g6"
         transform="translate(44.947507,180.22036)"
         style="fill:#e2e2e2;fill-opacity:1"
         inkscape:export-filename="eines_comunals.png"
         inkscape:export-xdpi="96"
         inkscape:export-ydpi="96"><path
           style="fill:#e2e2e2;fill-opacity:1"
           d="m -331.39175,71.55106 c 3.09104,-3.09356 5.62007,-5.72197 5.62007,-5.84091 0,-0.27299 -10.3254,-11.420903 -10.57826,-11.420903 -0.10266,0 -2.49108,2.182563 -5.30759,4.850133 -5.86489,5.55472 -5.27329,5.47784 -5.96368,0.775 -0.95716,-6.520108 0.38556,-12.763168 3.86284,-17.960508 2.05133,-3.06603 1.65893,-2.87816 6.01168,-2.87816 2.09425,0 4.01504,0.11095 4.26842,0.24655 0.25337,0.1356 5.55793,5.43781 11.78789,11.78267 12.90234,13.140308 11.83307,11.541148 10.0902,15.090568 -1.74035,3.54427 -6.77741,7.5967 -11.62095,9.34929 -3.46173,1.2526 -5.78407,1.63092 -10.01155,1.63092 h -3.77916 z m 145.84926,5.46686 c -7.5576,-0.84336 -12.57215,-3.1042 -17.21081,-7.7596 -1.90589,-1.91277 -3.34819,-4.24955 -3.84525,-6.23004 -0.19594,-0.78067 -0.11077,-0.87345 13.78917,-15.022878 l 9.81192,-9.98803 h 3.86625 3.86624 l 0.96878,1.12448 c 4.95408,5.75026 7.16353,14.74499 5.42714,22.094068 l -0.57858,2.44875 -1.47352,-1.25813 c -0.81044,-0.69197 -3.15468,-3.01234 -5.20942,-5.15638 l -3.73589,-3.898248 -5.68228,5.513538 -5.68229,5.51355 3.70417,3.89011 c 2.03729,2.13956 4.69697,4.95478 5.9104,6.25606 l 2.20623,2.36596 h -1.04294 c -0.57362,0 -1.74502,0.0473 -2.60311,0.10506 -0.85809,0.0578 -1.97688,0.0586 -2.48621,0.002 z m -135.48006,-28.298298 -11.75836,-11.76058 h -2.84539 c -1.56495,0 -2.84539,-0.10983 -2.84539,-0.24406 0,-0.41504 2.71332,-2.64763 3.96875,-3.2656 1.07558,-0.52944 1.76594,-0.60526 7.14375,-0.78465 7.78781,-0.25979 9.74802,-0.51685 11.90625,-1.56138 1.55131,-0.7508 3.3658,-2.46906 18.52085,-17.5386 12.04343,-12.58014 24.01186,-24.16572 37.87119,-34.59278 l 0.90209,0.42807 c 2.24718,1.06636 12.69477,9.35885 17.15956,13.61996 4.16112,3.97128 19.83863,19.22673 29.84694,29.04342 4.33239,4.24944 8.38436,8.01879 9.00438,8.37634 2.54307,1.46652 3.22596,1.57139 11.44605,1.75771 6.03876,0.13689 7.87014,0.26067 8.59896,0.58122 1.23319,0.54237 3.74534,2.57676 3.5574,2.88085 -0.082,0.13264 -1.26693,0.24117 -2.63324,0.24117 h -2.48419 l -1.53509,1.27821 c -0.8443,0.70302 -6.34819,6.17875 -12.23087,12.16829 l -10.69579,10.890088 -1.1339,-4.42924 c -1.4184,-5.540568 -2.17678,-7.334768 -4.09918,-9.698018 -0.83885,-1.03123 -11.23813,-11.15534 -22.5541,-23.03829 l -21.59753,-22.67965 c 0,0 -2.69171,1.1589 -25.56972,24.13152 -13.43212,13.48769 -21.27959,21.56132 -21.87272,22.50309 -1.39081,2.20834 -1.72026,3.12076 -3.07119,8.505938 l -1.24116,4.94756 z m -7.97468,-31.34281 c -3.78957,-4.29111 -5.37132,-9.1996 -4.35547,-13.51598 0.43986,-1.86897 2.09586,-5.86333 2.48456,-5.9929 0.12931,-0.0431 1.09601,0.52623 2.14824,1.26518 6.15494,4.32244 7.10324,11.80641 2.37074,18.70978 -0.42397,0.61847 -0.87719,1.12448 -1.00714,1.12448 -0.12995,0 -0.86837,-0.71575 -1.64093,-1.59056 z m -20.13189,-0.68841 c -0.34183,-0.34183 -0.19656,-5.74433 0.1939,-7.21138 0.99689,-3.74543 3.96931,-7.40057 7.28854,-8.96259 1.3986,-0.65818 5.08153,-1.65539 6.11372,-1.65539 0.12996,0 0.23422,0.74414 0.23169,1.65365 -0.0132,4.74374 -2.23191,9.39337 -5.91617,12.39808 -2.36712,1.93051 -7.37005,4.31928 -7.91168,3.77763 z m 39.35271,-10.54129 c -0.38618,-0.38618 -0.64943,-0.95559 -0.64943,-1.40471 0,-0.61999 -0.50777,-1.22641 -2.83471,-3.38547 -1.55908,-1.4466 -6.96611,-6.64117 -12.01562,-11.5435 -10.93841,-10.61958 -10.78895,-10.5284 -13.18126,-8.04173 -0.50149,0.52127 -1.02675,0.94776 -1.16725,0.94776 -0.1405,0 -1.00611,-0.43912 -1.92357,-0.97581 -1.76391,-1.03184 -1.85105,-1.41915 -0.44003,-1.95563 0.74621,-0.2837 0.76223,-0.5495 0.0709,-1.17519 -0.52232,-0.47269 -0.56442,-0.46396 -1.73192,0.35897 l -1.19658,0.84343 -1.24272,-1.17416 -1.24272,-1.17416 0.59339,-0.8026 c 0.32636,-0.44142 0.59338,-0.92648 0.59338,-1.07789 0,-0.38035 -0.7959,-0.32862 -1.57401,0.1023 -0.6025,0.33366 -0.73712,0.28367 -1.91823,-0.71225 -0.69864,-0.5891 -1.27026,-1.19477 -1.27026,-1.34593 0,-0.15116 0.31874,-0.60753 0.70832,-1.01416 0.87856,-0.91702 0.67836,-1.15713 -0.6778,-0.8129 -1.00254,0.25447 -1.08688,0.22468 -1.99388,-0.70417 -0.52088,-0.53343 -0.94706,-1.09129 -0.94706,-1.23969 0,-0.1484 0.35719,-0.5339 0.79376,-0.85666 0.43656,-0.32277 0.79375,-0.77305 0.79375,-1.00063 0,-0.34302 -0.22068,-0.38343 -1.29041,-0.2363 -1.21882,0.16763 -1.32156,0.13371 -1.85208,-0.61133 -0.69415,-0.97484 -0.69438,-1.06093 -0.005,-1.79496 0.70253,-0.74781 0.45849,-1.16112 -0.68559,-1.16112 -0.64932,0 -1.04117,-0.19062 -1.44365,-0.702291 -0.49647,-0.63116 -0.51181,-0.74716 -0.15149,-1.14531 0.61748,-0.68232 0.50463,-1.3274 -0.23223,-1.3274 -0.83563,0 -1.08876,-0.72591 -0.49771,-1.42732 0.78086,-0.92667 0.96563,-0.95774 1.67183,-0.28116 0.84236,0.80703 1.39498,0.82138 2.11173,0.0548 l 0.55664,-0.59532 0.74163,0.90648 c 0.71011,0.86793 0.77666,0.89196 1.56558,0.56518 1.05613,-0.43746 1.6272,-0.21109 1.6272,0.64501 0,0.86588 0.6661,1.12606 1.53427,0.59929 0.64379,-0.39063 0.73085,-0.36644 1.94609,0.54083 l 1.27216,0.94976 -0.54667,0.926541 c -0.51236,0.86839 -0.51819,0.94736 -0.093,1.2583 0.37576,0.27475 0.62487,0.23326 1.44981,-0.24152 l 0.99609,-0.57328 1.4831,1.26706 c 0.81571,0.69689 1.48311,1.33948 1.48311,1.42799 0,0.0885 -0.26118,0.43894 -0.58041,0.77874 -0.52957,0.56371 -0.5437,0.65452 -0.16135,1.03688 0.36328,0.36328 0.54721,0.37271 1.3819,0.0709 l 0.96285,-0.34818 1.77819,1.79138 1.7782,1.79138 -0.9922,0.84426 c -1.11204,0.94624 -1.22707,1.36139 -0.48695,1.7575 0.36691,0.19636 0.77378,0.15818 1.4861,-0.13944 0.53947,-0.22541 1.13526,-0.35058 1.32396,-0.27817 0.20897,0.0802 0.40967,0.83653 0.51338,1.93468 0.0937,0.99167 0.31231,2.16022 0.48591,2.59678 0.35142,0.88376 9.42358,9.86358 18.24818,18.06245 4.31322,4.00738 5.92859,5.35317 6.42546,5.35317 1.43637,0 2.67653,1.57044 2.21832,2.8091 -0.28742,0.77696 -1.51976,1.68882 -2.28237,1.68882 -0.35079,0 -0.93005,-0.29224 -1.28724,-0.64943 z m -35.70672,-8.39032 c -2.19316,-0.29828 -4.61028,-1.56013 -6.65828,-3.47592 l -1.72951,-1.61788 0.62202,-0.51208 c 1.13193,-0.93188 4.3631,-2.30933 6.08735,-2.59505 3.07128,-0.50893 6.36118,0.76908 9.21724,3.58058 0.73947,0.72793 1.30912,1.50963 1.26589,1.73712 -0.11729,0.61725 -2.4648,2.0863 -4.00942,2.50905 -1.9591,0.53619 -3.00434,0.61775 -4.79529,0.37418 z m 53.45868,-26.27889 c -17.17115,-17.383311 -17.62225,-17.784971 -21.71193,-19.332171 -1.98364,-0.75046 -3.95263,-0.9545 -13.39231,-1.38787 l -4.66431,-0.21413 -1.52614,-0.91162 c -1.88342,-1.12501 -6.33705,-5.435976 -7.62353,-7.3793 -0.52454,-0.792337 -0.9246,-1.469694 -0.88906,-1.505238 0.0355,-0.03554 7.4757,0.341925 16.53368,0.838822 l 16.46905,0.903448 2.96176,-3.057331 c 3.79899,-3.921579 3.82688,-3.961437 3.23195,-4.61883 -0.25533,-0.282133 -0.58176,-0.512969 -0.72541,-0.512969 -0.14364,0 -1.67614,1.374026 -3.40554,3.053391 -2.92944,2.844678 -3.20267,3.04401 -3.9973,2.916158 -0.46911,-0.07548 -3.47216,-0.268657 -6.67344,-0.429287 -3.20128,-0.16063 -5.85235,-0.323891 -5.89126,-0.362801 -0.0852,-0.08518 2.62167,-2.702153 8.11381,-7.844403 7.47236,-6.996315 13.08007,-12.148519 13.14831,-12.080281 0.0371,0.03713 0.55658,2.894429 1.15433,6.349559 1.42684,8.2474 2.12298,10.446596 4.33326,13.689331 0.44635,0.654844 7.53272,7.977191 15.7475,16.271871 15.49369,15.644401 41.76775,40.072351 41.60839,40.580401 -19.13192,-17.66822 -29.93575,-12.42656 -12.91519,9.59253 -0.12032,0 -31.04807,-25.61153 -39.88662,-34.55928 z m 19.77673,19.19854 17.36897,-15.85766 c 1.10656,-1.01028 8.84505,-8.90945 17.42309,-17.328431 16.02595,-15.728788 17.98863,-17.78119 19.70868,-20.60981 1.33699,-2.19865 1.87249,-4.047266 3.11014,-10.736461 0.57425,-3.1037 1.13481,-5.993153 1.24567,-6.421007 0.19768,-0.762842 0.37588,-0.596994 9.19648,8.558894 8.87407,9.211386 11.1744,11.732645 10.92872,11.978319 -0.0689,0.06892 -3.27064,-0.0073 -7.11498,-0.169375 l -6.98968,-0.294675 -1.05833,-1.022703 c -0.58209,-0.562486 -1.71318,-1.852398 -2.51355,-2.866471 -1.51466,-1.919093 -1.84112,-2.124874 -2.36657,-1.491744 -0.40999,0.494016 -0.18264,0.903345 2.47719,4.459868 l 2.09499,2.801267 1.60918,0.151883 c 0.88504,0.08354 5.06198,0.327013 9.2821,0.54106 9.39687,0.476618 21.12462,1.231345 21.28464,1.369751 0.18596,0.160845 -3.66775,3.980844 -5.27735,5.231174 -3.07951,2.39215 -2.90383,2.35238 -11.24479,2.54571 l -7.40833,0.17171 -2.27996,0.84378 c -4.28709,1.58661 -5.06371,2.25652 -22.44252,19.358761 -8.86196,8.72094 -37.75975,33.00967 -37.80799,33.00967 -14.82675,0 44.25133,-25.53858 -9.2258,-14.22351 z m -53.62116,-7.99857 c -1.34588,-2.05407 -1.58686,-7.42086 -0.45945,-10.23207 1.08441,-2.70398 3.58922,-5.7326 6.3913,-7.72785 l 0.793,-0.56467 1.03327,2.20548 c 1.8994,4.05426 2.0052,7.228 0.35697,10.7091 -1.26777,2.67758 -4.59259,5.61477 -6.87177,6.0706 -0.68616,0.13723 -0.90464,0.0563 -1.24332,-0.46059 z m 142.31075,-41.776543 c -4.07458,-0.262851 -7.4381,-0.4863 -7.47448,-0.496555 -0.0364,-0.01025 -0.0661,-0.252638 -0.0661,-0.538632 0,-0.719213 -2.79005,-3.870733 -11.48574,-12.973762 -11.0196,-11.535803 -10.05628,-10.395405 -9.57211,-11.331687 0.85594,-1.6552 3.63141,-4.806057 5.82839,-6.616694 3.878,-3.196044 7.20764,-4.914658 11.95017,-6.168168 2.13071,-0.563174 2.90371,-0.621809 8.17409,-0.620041 3.64316,0.0012 6.0001,0.107523 6.3,0.284139 0.41864,0.246542 -0.40018,1.117985 -6.48229,6.898818 -3.82881,3.639147 -7.52701,7.128088 -8.21824,7.753204 -0.69122,0.625115 -1.25677,1.245816 -1.25677,1.379334 0,0.133519 1.04893,1.338745 2.33096,2.678282 1.28203,1.339537 3.80301,4.042865 5.60219,6.007396 1.79918,1.964532 3.37425,3.613104 3.50015,3.663496 0.12591,0.05039 2.33766,-1.978965 4.915,-4.50968 8.97766,-8.815235 10.69698,-10.361877 10.97217,-9.870147 0.13601,0.243046 0.24536,2.247634 0.243,4.454638 -0.007,6.209149 -1.02155,10.689028 -3.51646,15.52211 -1.75054,3.391128 -2.98339,5.036254 -3.74281,4.994472 -0.326,-0.01794 -3.92649,-0.247672 -8.00107,-0.510523 z m -142.87501,-1.498728 c -0.94584,-0.102755 -14.23875,-0.859319 -15.97803,-0.909387 l -1.69053,-0.04866 -0.76873,-1.695394 c -2.37705,-5.242474 -3.26158,-9.857028 -3.04871,-15.905041 0.0801,-2.276006 0.22962,-4.410843 0.33226,-4.744083 0.2371,-0.769799 -0.40377,-1.355826 8.10046,7.407235 l 6.85724,7.065928 6.06306,-5.84822 6.06306,-5.84822 -0.47587,-0.604974 c -0.26173,-0.332736 -3.73912,-4.074537 -7.72754,-8.315114 -3.98841,-4.240577 -7.28821,-7.810877 -7.33288,-7.934 -0.13053,-0.359747 2.75569,-0.656722 5.91031,-0.608138 9.22318,0.142046 16.93479,3.330228 23.03935,9.525083 1.42088,1.441899 2.48137,2.816376 3.1399,4.069552 l 0.99437,1.892292 -1.15552,1.115937 c -0.63554,0.613765 -3.47297,3.308208 -6.30539,5.98765 -7.38419,6.98536 -15.12707,14.595317 -15.32119,15.058172 -0.0915,0.218281 -0.40457,0.371005 -0.69561,0.339387 z"
           id="path1"
           sodipodi:nodetypes="sssssssssssscscssscccsscsscccsscssccccsssssscsssssssscsscssscsssccsssssssssssssscssssssscscccssssssssssssscssssssscssssscscscssssccccsssscsssssccsscssssssssscsscscsssssssscsssssscsssssssscsssscssssscssscssscssssssssssssssssssssscsssssscsssscccsssssscsscss" /><path
           style="fill:#e2e2e2;fill-opacity:1;stroke-width:0.134025"
           d="m -291.383,16.024282 c 14.80377,-14.31096 16.57325,-15.98729 16.78675,-15.90302 0.18445,0.0728 2.85297,3.04356 3.05492,3.40091 0.12261,0.21698 -1.45387,1.7988 -18.58569,18.64872 l -9.00056,8.85244 0.0356,-0.0732 -3.65014,-0.37478 0.39492,-3.62247 z"
           id="path3"
           sodipodi:nodetypes="csssccccc" /><path
           style="fill:#e2e2e2;fill-opacity:1;stroke-width:0.134025"
           d="m -226.84105,-36.090518 c -14.80377,14.31096 -16.57326,15.98729 -16.78675,15.90302 -0.18445,-0.0728 -2.85297,-3.04356 -3.05492,-3.40091 -0.12263,-0.21698 1.45386,-1.7988 18.58569,-18.648721 l 9.00055,-8.85244 -0.0356,0.0732 3.65015,0.37478 -0.39493,3.62247 z"
           id="path3-6"
           sodipodi:nodetypes="csssccccc" /><path
           style="fill:#e2e2e2;fill-opacity:1;stroke-width:0.134025"
           d="m -230.17802,19.337042 c -14.31097,-14.80377 -15.98729,-16.57326 -15.90303,-16.78675 0.0728,-0.18445 3.04357,-2.85297 3.40092,-3.05492 0.21697,-0.12263 1.7988,1.45386 18.64872,18.58569 l 8.85244,9.00055 -0.0732,-0.0356 -0.37477,3.65015 -3.62247,-0.39493 z"
           id="path3-6-3"
           sodipodi:nodetypes="csssccccc" /><path
           style="fill:#e2e2e2;fill-opacity:1;stroke-width:0.134025"
           d="m -283.22033,-38.292049 c 14.31096,14.803771 15.98729,16.573261 15.90302,16.786751 -0.0728,0.18445 -3.04356,2.85297 -3.40091,3.05492 -0.21698,0.12263 -1.7988,-1.45386 -18.64872,-18.585691 l -8.85244,-9.00055 0.0732,0.0356 0.37477,-3.65015 3.62248,0.39493 z"
           id="path3-6-3-2"
           sodipodi:nodetypes="csssccccc" /><path
           d="m -205.57095,13.462262 c -1.137,-0.44002 -3.57454,-2.26394 -3.54603,-2.65335 0.0187,-0.25503 2.94632,-1.88934 3.92682,-2.19209 0.96303,-0.29734 2.85006,-0.18765 3.79562,0.22063 0.39984,0.17265 1.13869,0.84151 1.64191,1.48634 0.72286,0.92628 0.98715,1.10856 1.25889,0.86824 0.18917,-0.1673 0.60456,-0.28821 0.92309,-0.26866 0.62444,0.0383 0.92766,-0.39986 0.99097,-1.43199 0.055,-0.89596 -0.45633,-1.94632 -1.49879,-3.07892 -1.02674,-1.11555 -2.27789,-1.49131 -4.15063,-1.2466 -0.8974,0.11727 -1.72814,0.0403 -2.74822,-0.25456 -1.21333,-0.35078 -1.68655,-0.67653 -2.78168,-1.91482 -0.7258,-0.82068 -1.30913,-1.66351 -1.29628,-1.87297 0.0292,-0.47643 2.32354,-1.31953 3.91626,-1.43912 1.83436,-0.13773 3.57212,0.97315 5.66483,3.62127 1.87157,2.36833 2.16068,2.30407 1.4516,-0.32264 -0.24359,-0.90238 -0.43195,-1.81921 -0.41856,-2.0374 0.0135,-0.22075 -0.59117,-0.73551 -1.36326,-1.16045 -2.69452,-1.48307 -3.65201,-3.50716 -3.42322,-7.23658 l 0.0958,-1.56081 1.58642,0.683 c 3.68827,1.58792 5.36735,4.74772 4.20404,7.91134 -0.32722,0.8899 -0.31352,1.09871 0.11547,1.76087 0.26769,0.41317 0.51467,1.30243 0.54885,1.97613 0.0342,0.6737 0.34733,1.94541 0.69591,2.82604 l 0.63375,1.60114 0.58672,-1.11484 c 0.99925,-1.89868 1.06812,-2.71919 0.32171,-3.83313 -1.34176,-2.00254 -0.81398,-4.45161 1.38418,-6.42292 1.05565,-0.9467 3.29603,-2.46808 3.60644,-2.44904 0.22974,0.0141 0.64568,2.49841 0.59838,3.57401 -0.106,2.41047 -1.39863,4.5369 -3.53078,5.80831 -0.47831,0.28521 -0.62701,0.71768 -0.88232,2.56594 l -0.30706,2.22291 0.59831,-0.52914 c 0.32908,-0.29103 0.82331,-1.08551 1.0983,-1.76549 0.42108,-1.04126 0.69333,-1.31982 1.72529,-1.76534 1.16317,-0.50217 5.29431,-1.25428 5.51553,-1.00416 0.1838,0.20783 -0.91216,2.63251 -1.6127,3.56791 -1.36847,1.82727 -3.1297,2.48508 -4.83244,1.80489 -0.89132,-0.35605 -1.01445,-0.3348 -1.9664,0.33947 -1.46605,1.0384 -2.17321,2.07202 -2.63994,3.85861 -0.22611,0.86557 -0.5243,1.63446 -0.66264,1.70865 -0.13833,0.0742 -0.46674,-0.35966 -0.72979,-0.96412 -0.40064,-0.9206 -0.60891,-1.10705 -1.28281,-1.14839 -0.44857,-0.0275 -1.20042,0.21592 -1.69939,0.55025 -1.97705,1.3247 -3.43992,1.51355 -5.51213,0.71161 z m 5.97158,-8.76018 c -0.0808,-0.15075 -0.26585,-0.2814 -0.41112,-0.29031 -0.14524,-0.009 -0.19792,0.10715 -0.11707,0.2579 0.0808,0.15076 0.26586,0.28139 0.41111,0.2903 0.14524,0.009 0.19794,-0.10714 0.11708,-0.25789 z m -21.64843,-5.95495 c -1.1654,-1.31773 -0.84681,-1.91073 2.63206,-4.8991 8.67151,-7.44893 20.47941,-18.07872 20.65975,-18.03787 2.8493,0.64551 0.69197,2.11968 -1.8177,1.75734 -0.4513,-0.0652 6.25532,-5.65001 6.90212,-6.79808 0.32279,-0.57295 0.61662,-1.38993 0.65298,-1.8155 0.14996,-1.75523 0.45283,-1.72875 1.26781,0.11084 1.21664,2.74609 2.71996,4.44941 5.11107,5.79098 1.12755,0.63263 1.81741,1.05387 1.53305,0.9361 -0.28436,-0.11777 -1.59763,-0.33636 -2.91834,-0.48575 -2.19682,-0.2485 -2.54259,-0.2184 -4.06035,0.3539 -0.20789,0.15163 -15.79354,13.27913 -16.81759,14.20281 -9.97363,8.99597 -10.799,9.6789 -11.63575,9.62757 -0.6041,-0.0371 -1.10096,-0.28177 -1.50908,-0.74323 z m 38.05491,-23.10548 c -0.0632,-0.20076 -1.06756,-1.02339 -2.23184,-1.82809 -1.16428,-0.8047 -2.3543,-1.75589 -2.64448,-2.11377 -0.84693,-1.04452 -1.91096,-3.2564 -2.43976,-5.07177 l -0.49027,-1.68304 3.95038,-3.671381 c 2.17271,-2.01926 4.83474,-4.44203 5.91562,-5.38391 l 1.96524,-1.7125 1.92147,1.6398 c 2.71208,2.31452 6.75799,6.29913 8.45533,8.327211 l 1.44126,1.72208 -5.3079,3.53724 c -5.06902,3.37803 -8.1032,5.31889 -9.69085,6.19892 -0.58927,0.32663 -0.75129,0.33415 -0.84421,0.0392 z"
           style="fill:#e2e2e2;fill-opacity:1"
           id="path1-7" /><path
           d="m -258.86152,-44.445149 c 0.10219,-0.34394 0.25469,-1.36593 0.33888,-2.27111 0.11892,-1.27844 0.0552,-1.79516 -0.28548,-2.3151 -0.67751,-1.03401 -1.64242,-0.86787 -4.03044,0.69398 -2.41152,1.57721 -3.95214,2.32681 -4.79915,2.33504 -0.5768,0.006 -0.56428,-0.045 0.3528,-1.42622 0.52295,-0.78761 1.01448,-1.90674 1.09231,-2.48695 0.12302,-0.91723 0.054,-1.11225 -0.52879,-1.49411 -0.64317,-0.42142 -0.79332,-0.39664 -3.71396,0.61315 -3.20268,1.1073 -5.99705,1.63801 -5.99705,1.13897 0,-0.1553 0.52675,-0.64477 1.17056,-1.08773 0.64381,-0.44295 1.41772,-1.11957 1.71979,-1.5036 0.67649,-0.860013 0.72066,-2.107283 0.0862,-2.434704 -0.25466,-0.131425 -1.80238,-0.320598 -3.43938,-0.420385 -2.82097,-0.171958 -5.00709,-0.621408 -5.88718,-1.210357 -0.52428,-0.350848 -0.0423,-0.678051 1.31961,-0.895827 1.28028,-0.204726 2.38456,-1.082619 2.38456,-1.895711 0,-0.756356 -0.61504,-1.11464 -3.90654,-2.275737 -2.45013,-0.864295 -4.92066,-2.326326 -5.37938,-3.18346 -0.26785,-0.500478 -0.20027,-0.510598 2.2221,-0.332785 2.30231,0.169 2.54099,0.140757 3.04166,-0.359911 1.04684,-1.046843 0.39233,-2.088599 -2.57248,-4.094488 -1.08044,-0.730987 -2.45214,-1.817424 -3.04822,-2.414305 -1.05535,-1.056772 -2.18164,-2.974978 -1.90766,-3.248963 0.075,-0.075 0.90916,0.172789 1.85368,0.550654 1.98044,0.792304 2.73119,0.85045 3.55255,0.27515 0.93218,-0.652923 0.75929,-1.713398 -0.53644,-3.290578 -2.15789,-2.626597 -2.56559,-3.240642 -3.09999,-4.668952 -0.56001,-1.496759 -0.70141,-2.741092 -0.3115,-2.741092 0.1246,0 0.74967,0.398792 1.38906,0.886204 1.3625,1.038644 2.69457,1.759629 3.25106,1.759629 0.54412,0 1.21875,-1.03226 1.21875,-1.86483 0,-0.378814 -0.31424,-1.572713 -0.6983,-2.653107 -0.98576,-2.772954 -1.22704,-7.791866 -0.34849,-7.248891 0.14333,0.08859 0.51047,0.659002 0.81585,1.267592 0.83363,1.661316 1.52147,2.297153 2.48502,2.297153 1.45285,0 1.64624,-0.502378 1.78237,-4.630209 0.11351,-3.441877 0.47659,-5.423961 0.99358,-5.423961 0.11866,0 0.47305,0.803675 0.78752,1.78594 0.70628,2.206107 1.18653,2.976563 1.85537,2.976563 0.77194,0 1.2342,-0.921786 1.82587,-3.640913 0.54724,-2.51492 1.33271,-4.62086 1.84056,-4.93472 0.30483,-0.1884 0.43427,0.2337 0.69925,2.28038 0.21365,1.65016 0.86936,2.464488 1.79698,2.23167 0.5283,-0.132595 0.9943,-0.71089 1.93678,-2.40346 1.39339,-2.50236 2.96414,-4.67855 3.50467,-4.85554 0.28268,-0.0926 0.31989,0.11571 0.17447,0.97648 -0.36072,2.13507 -0.25671,3.46474 0.31582,4.03726 0.50827,0.50827 0.58117,0.51423 1.36052,0.11121 0.45291,-0.2342 1.74535,-1.25498 2.8721,-2.26838 1.9938,-1.79323 4.12961,-3.18014 4.43187,-2.87787 0.0823,0.0823 -0.10187,0.71811 -0.40922,1.41294 -0.68031,1.53794 -0.71635,2.90988 -0.0945,3.59702 0.66961,0.7399 1.14754,0.65279 3.74161,-0.68202 2.45917,-1.2654 4.86724,-2.24447 5.52035,-2.24447 0.26029,0 0.0368,0.45075 -0.66151,1.33418 -1.27048,1.60728 -1.58693,2.87814 -0.95632,3.840578 0.64454,0.983686 1.03899,1.045056 3.58276,0.55742 2.51449,-0.482021 6.35337,-0.593237 6.35337,-0.184062 0,0.141049 -0.68408,0.694051 -1.52017,1.228892 -1.85886,1.1891 -2.22152,1.63055 -2.04016,2.483405 0.27096,1.274139 1.17095,1.753054 3.65291,1.943833 2.4701,0.189867 4.25143,0.691444 5.63358,1.586274 1.09853,0.711202 1.14407,1.232393 0.10769,1.232393 -1.36593,0 -3.49169,0.568253 -3.99005,1.066608 -0.53695,0.536953 -0.44448,1.408171 0.23237,2.189436 0.22773,0.262855 1.50265,1.000391 2.83314,1.638969 1.86966,0.897345 2.72864,1.499742 3.78197,2.652257 1.20815,1.321905 1.69696,2.242314 1.19085,2.242314 -0.0946,0 -1.09772,-0.187566 -2.2291,-0.416814 -2.44785,-0.495999 -3.15512,-0.282485 -3.15512,0.952488 0,0.560583 0.35543,1.175603 1.25677,2.174658 2.01946,2.238385 3.14026,3.698103 3.70879,4.830293 0.58869,1.172336 1.15997,3.042708 0.92936,3.042708 -0.0813,0 -0.75633,-0.374843 -1.50003,-0.832985 -0.7437,-0.458142 -1.84189,-0.888507 -2.44042,-0.956366 -0.91813,-0.104095 -1.15593,-0.02672 -1.52135,0.494981 -0.23821,0.3401 -0.43312,0.778401 -0.43312,0.974003 0,0.195601 0.59984,1.7078 1.33298,3.360441 0.76669,1.728257 1.40382,3.602846 1.49971,4.412513 l 0.16672,1.407713 -1.36018,-1.222924 c -1.47766,-1.32854 -2.34963,-1.64094 -3.28554,-1.177104 -0.78735,0.39021 -0.87871,1.413991 -0.35322,3.958065 0.4172,2.019798 0.55843,5.486658 0.23661,5.808472 -0.0965,0.09648 -0.69781,-0.603286 -1.33629,-1.555038 -1.30691,-1.948143 -2.18639,-2.474549 -3.1163,-1.865245 -0.50521,0.331025 -0.61403,0.713228 -0.77413,2.719007 -0.10247,1.283613 -0.31569,2.869628 -0.47384,3.524468 -0.37696,1.56089 -1.25503,3.29919 -1.51945,3.00804 -0.11485,-0.12645 -0.45818,-1.06335 -0.76296,-2.082 -0.67914,-2.269817 -1.19655,-3.042708 -2.03697,-3.042708 -0.84139,0 -1.26811,0.716287 -1.96556,3.299328 -0.59001,2.1851 -1.60688,4.32529 -2.3932,5.0369 -0.4228,0.38262 -0.4627,0.29507 -0.59036,-1.29527 -0.17055,-2.12471 -0.89257,-3.70043 -1.75126,-3.82196 -0.7437,-0.10524 -1.87972,0.89626 -2.80227,2.47045 -0.67023,1.14366 -2.81156,3.27984 -3.83887,3.82964 -0.5798,0.3103 -0.60625,0.29224 -0.43183,-0.29479 z m 2.11095,-9.452182 c 1.40414,-1.218731 1.45776,-3.451769 0.11441,-4.765141 l -0.78356,-0.766076 1.40772,-0.333169 c 5.54222,-1.311687 10.3542,-5.81137 11.87645,-11.105646 0.18828,-0.654844 0.36946,-1.22931 0.40264,-1.276591 0.0332,-0.04728 0.54541,0.235069 1.13833,0.627444 0.952,0.630005 1.26976,0.699542 2.71796,0.594789 1.51007,-0.109229 1.70945,-0.199062 2.51811,-1.134547 0.74701,-0.864158 0.8782,-1.217557 0.8782,-2.365633 0,-1.63631 -0.83715,-3.033826 -2.20664,-3.68369 -1.20815,-0.573303 -2.08937,-0.548447 -3.34961,0.09448 -0.57049,0.291041 -1.14447,0.529166 -1.27552,0.529166 -0.13105,0 -0.31112,-0.625078 -0.40016,-1.389062 -0.20945,-1.79709 -1.90951,-5.217607 -3.4769,-6.995498 -1.96723,-2.231428 -5.01926,-4.074292 -8.02389,-4.844957 -1.00328,-0.257334 -1.11646,-0.360674 -0.95653,-0.873364 0.19285,-0.618209 0.57839,-0.967686 1.07485,-0.974318 0.16683,-0.0022 0.686,-0.439898 1.15373,-0.9726 0.78119,-0.889722 0.84074,-1.085004 0.73174,-2.399438 -0.0952,-1.148367 -0.27567,-1.587894 -0.91385,-2.22607 -1.52573,-1.525723 -3.98723,-1.215295 -5.12211,0.645964 -0.85633,1.404438 -0.58637,3.096179 0.71114,4.456517 0.42089,0.44127 0.63421,0.929105 0.57849,1.322917 -0.0819,0.578768 -0.24206,0.636626 -2.21529,0.800364 -3.80413,0.315665 -6.62946,1.689086 -9.47926,4.60796 -1.67785,1.718506 -3.44485,4.897351 -3.94403,7.095338 l -0.33574,1.478287 -0.94002,-0.668834 c -1.29101,-0.918565 -2.57407,-1.087853 -3.80782,-0.502404 -2.40123,1.139458 -2.68473,4.461717 -0.52566,6.160043 1.00153,0.787799 2.00339,0.918411 3.32673,0.433701 1.8403,-0.674067 1.85147,-0.668826 2.34224,1.099868 0.92278,3.325553 2.82442,6.174797 5.56868,8.343578 1.9032,1.504099 3.37757,2.163645 7.38182,3.30218 0.28924,0.08224 0.25302,0.23418 -0.16538,0.693713 -1.20435,1.322756 -1.4557,2.764961 -0.72736,4.173421 0.22202,0.429336 0.43038,0.782404 0.46302,0.784595 0.0327,0.0022 0.5356,0.176937 1.11769,0.388324 1.18594,0.430683 2.39723,0.293736 3.14537,-0.355609 z"
           style="fill:#e2e2e2;fill-opacity:1"
           id="path1-2" /><path
           d="m -259.38515,-210.5481 c 0.10219,-0.34394 0.25469,-1.36593 0.33888,-2.27111 0.11892,-1.27844 0.0552,-1.79516 -0.28548,-2.3151 -0.67751,-1.03401 -1.64242,-0.86787 -4.03044,0.69398 -2.41152,1.57721 -3.95214,2.32681 -4.79915,2.33504 -0.5768,0.006 -0.56428,-0.045 0.3528,-1.42622 0.52295,-0.78761 1.01448,-1.90674 1.09231,-2.48695 0.12302,-0.91723 0.054,-1.11225 -0.52879,-1.49411 -0.64317,-0.42142 -0.79332,-0.39664 -3.71396,0.61315 -3.20268,1.1073 -5.99705,1.63801 -5.99705,1.13897 0,-0.1553 0.52675,-0.64477 1.17056,-1.08773 0.64381,-0.44295 1.41772,-1.11957 1.71979,-1.5036 0.67649,-0.86002 0.72066,-2.10729 0.0862,-2.43471 -0.25466,-0.13142 -1.80238,-0.3206 -3.43938,-0.42038 -2.82097,-0.17196 -5.00709,-0.62141 -5.88718,-1.21036 -0.52428,-0.35085 -0.0423,-0.67805 1.31961,-0.89583 1.28028,-0.20472 2.38456,-1.08262 2.38456,-1.89571 0,-0.75635 -0.61504,-1.11464 -3.90654,-2.27573 -2.45013,-0.8643 -4.92066,-2.32633 -5.37938,-3.18346 -0.26785,-0.50048 -0.20027,-0.5106 2.2221,-0.33279 2.30231,0.169 2.54099,0.14076 3.04166,-0.35991 1.04684,-1.04684 0.39233,-2.0886 -2.57248,-4.09449 -1.08044,-0.73099 -2.45214,-1.81742 -3.04822,-2.4143 -1.05535,-1.05678 -2.18164,-2.97498 -1.90766,-3.24897 0.075,-0.075 0.90916,0.17279 1.85368,0.55065 1.98044,0.79231 2.73119,0.85045 3.55255,0.27515 0.93218,-0.65292 0.75929,-1.71339 -0.53644,-3.29057 -2.15789,-2.6266 -2.56559,-3.24064 -3.09999,-4.66896 -0.56001,-1.49675 -0.70141,-2.74109 -0.3115,-2.74109 0.1246,0 0.74967,0.39879 1.38906,0.88621 1.3625,1.03864 2.69457,1.75963 3.25106,1.75963 0.54412,0 1.21875,-1.03226 1.21875,-1.86483 0,-0.37882 -0.31424,-1.57272 -0.6983,-2.65311 -0.98576,-2.77295 -1.22704,-7.79187 -0.34849,-7.24889 0.14333,0.0886 0.51047,0.659 0.81585,1.26759 0.83363,1.66132 1.52147,2.29715 2.48502,2.29715 1.45285,0 1.64624,-0.50238 1.78237,-4.63021 0.11351,-3.44187 0.47659,-5.42396 0.99358,-5.42396 0.11866,0 0.47305,0.80368 0.78752,1.78594 0.70628,2.20611 1.18653,2.97657 1.85537,2.97657 0.77194,0 1.2342,-0.92179 1.82587,-3.64092 0.54724,-2.51492 1.33271,-4.62086 1.84056,-4.93472 0.30483,-0.1884 0.43427,0.2337 0.69925,2.28038 0.21365,1.65016 0.86936,2.46449 1.79698,2.23167 0.5283,-0.13259 0.9943,-0.71089 1.93678,-2.40346 1.39339,-2.50236 2.96414,-4.67855 3.50467,-4.85554 0.28268,-0.0926 0.31989,0.11571 0.17447,0.97648 -0.36072,2.13507 -0.25671,3.46474 0.31582,4.03726 0.50827,0.50827 0.58117,0.51423 1.36052,0.11121 0.45291,-0.2342 1.74535,-1.25498 2.8721,-2.26838 1.9938,-1.79323 4.12961,-3.18014 4.43187,-2.87787 0.0823,0.0823 -0.10187,0.71811 -0.40922,1.41294 -0.68031,1.53794 -0.71635,2.90988 -0.0945,3.59702 0.66961,0.7399 1.14754,0.65279 3.74161,-0.68202 2.45917,-1.2654 4.86724,-2.24447 5.52035,-2.24447 0.26029,0 0.0368,0.45075 -0.66151,1.33418 -1.27048,1.60728 -1.58693,2.87814 -0.95632,3.84058 0.64454,0.98369 1.03899,1.04506 3.58276,0.55742 2.51449,-0.48202 6.35337,-0.59324 6.35337,-0.18406 0,0.14105 -0.68408,0.69405 -1.52017,1.22889 -1.85886,1.1891 -2.22152,1.63055 -2.04016,2.48341 0.27096,1.27413 1.17095,1.75305 3.65291,1.94383 2.4701,0.18987 4.25143,0.69144 5.63358,1.58627 1.09853,0.7112 1.14407,1.2324 0.10769,1.2324 -1.36593,0 -3.49169,0.56825 -3.99005,1.0666 -0.53695,0.53696 -0.44448,1.40817 0.23237,2.18944 0.22773,0.26285 1.50265,1.00039 2.83314,1.63897 1.86966,0.89734 2.72864,1.49974 3.78197,2.65226 1.20815,1.3219 1.69696,2.24231 1.19085,2.24231 -0.0946,0 -1.09772,-0.18757 -2.2291,-0.41681 -2.44785,-0.496 -3.15512,-0.28249 -3.15512,0.95248 0,0.56059 0.35543,1.17561 1.25677,2.17466 2.01946,2.23839 3.14026,3.6981 3.70879,4.83029 0.58869,1.17234 1.15997,3.04272 0.92936,3.04272 -0.0813,0 -0.75633,-0.37485 -1.50003,-0.83299 -0.7437,-0.45814 -1.84189,-0.88851 -2.44042,-0.95637 -0.91813,-0.10409 -1.15593,-0.0267 -1.52135,0.49498 -0.23821,0.34011 -0.43312,0.77841 -0.43312,0.97401 0,0.1956 0.59984,1.7078 1.33298,3.36044 0.76669,1.72826 1.40382,3.60285 1.49971,4.41251 l 0.16672,1.40772 -1.36018,-1.22293 c -1.47766,-1.32854 -2.34963,-1.64094 -3.28554,-1.1771 -0.78735,0.39021 -0.87871,1.41399 -0.35322,3.95806 0.4172,2.0198 0.55843,5.48666 0.23661,5.80847 -0.0965,0.0965 -0.69781,-0.60328 -1.33629,-1.55503 -1.30691,-1.94815 -2.18639,-2.47455 -3.1163,-1.86525 -0.50521,0.33103 -0.61403,0.71323 -0.77413,2.71901 -0.10247,1.28361 -0.31569,2.86963 -0.47384,3.52447 -0.37696,1.56089 -1.25503,3.29919 -1.51945,3.00804 -0.11485,-0.12645 -0.45818,-1.06335 -0.76296,-2.082 -0.67914,-2.26982 -1.19655,-3.04271 -2.03697,-3.04271 -0.84139,0 -1.26811,0.71629 -1.96556,3.29933 -0.59001,2.1851 -1.60688,4.32529 -2.3932,5.0369 -0.4228,0.38262 -0.4627,0.29507 -0.59036,-1.29527 -0.17055,-2.12471 -0.89257,-3.70043 -1.75126,-3.82196 -0.7437,-0.10524 -1.87972,0.89626 -2.80227,2.47045 -0.67023,1.14366 -2.81156,3.27984 -3.83887,3.82964 -0.5798,0.3103 -0.60625,0.29224 -0.43183,-0.29479 z m 2.11095,-9.45219 c 1.40414,-1.21873 1.45776,-3.45176 0.11441,-4.76514 l -0.78356,-0.76607 1.40772,-0.33317 c 5.54222,-1.31169 10.3542,-5.81137 11.87645,-11.10565 0.18828,-0.65484 0.36946,-1.22931 0.40264,-1.27659 0.0332,-0.0473 0.54541,0.23507 1.13833,0.62745 0.952,0.63 1.26976,0.69954 2.71796,0.59478 1.51007,-0.10922 1.70945,-0.19906 2.51811,-1.13454 0.74701,-0.86416 0.8782,-1.21756 0.8782,-2.36564 0,-1.63631 -0.83715,-3.03382 -2.20664,-3.68369 -1.20815,-0.5733 -2.08937,-0.54844 -3.34961,0.0945 -0.57049,0.29104 -1.14447,0.52917 -1.27552,0.52917 -0.13105,0 -0.31112,-0.62508 -0.40016,-1.38906 -0.20945,-1.79709 -1.90951,-5.21761 -3.4769,-6.9955 -1.96723,-2.23143 -5.01926,-4.07429 -8.02389,-4.84496 -1.00328,-0.25733 -1.11646,-0.36067 -0.95653,-0.87336 0.19285,-0.61821 0.57839,-0.96769 1.07485,-0.97432 0.16683,-0.002 0.686,-0.4399 1.15373,-0.9726 0.78119,-0.88972 0.84074,-1.085 0.73174,-2.39944 -0.0952,-1.14837 -0.27567,-1.58789 -0.91385,-2.22607 -1.52573,-1.52572 -3.98723,-1.21529 -5.12211,0.64597 -0.85633,1.40443 -0.58637,3.09617 0.71114,4.45651 0.42089,0.44127 0.63421,0.92911 0.57849,1.32292 -0.0819,0.57877 -0.24206,0.63663 -2.21529,0.80036 -3.80413,0.31567 -6.62946,1.68909 -9.47926,4.60796 -1.67785,1.71851 -3.44485,4.89735 -3.94403,7.09534 l -0.33574,1.47829 -0.94002,-0.66884 c -1.29101,-0.91856 -2.57407,-1.08785 -3.80782,-0.5024 -2.40123,1.13946 -2.68473,4.46172 -0.52566,6.16004 1.00153,0.7878 2.00339,0.91842 3.32673,0.4337 1.8403,-0.67406 1.85147,-0.66882 2.34224,1.09987 0.92278,3.32556 2.82442,6.1748 5.56868,8.34358 1.9032,1.5041 3.37757,2.16365 7.38182,3.30218 0.28924,0.0822 0.25302,0.23418 -0.16538,0.69372 -1.20435,1.32275 -1.4557,2.76496 -0.72736,4.17342 0.22202,0.42933 0.43038,0.7824 0.46302,0.78459 0.0327,0.002 0.5356,0.17694 1.11769,0.38833 1.18594,0.43068 2.39723,0.29373 3.14537,-0.35561 z"
           style="fill:#17280b;fill-opacity:1"
           id="path1-2-1" /><path
           d="m -239.54081,82.79194 c -0.21828,-0.0462 -0.82966,-0.15427 -1.35862,-0.24017 -0.69544,-0.11294 -0.95185,-0.28266 -0.92604,-0.61293 0.0245,-0.3129 -0.19344,-0.48311 -0.6919,-0.54047 -0.40018,-0.046 -0.7276,0.0433 -0.7276,0.19844 0,0.15519 -0.23813,0.28216 -0.52917,0.28216 -0.42927,0 -0.52917,-0.17639 -0.52917,-0.93435 0,-1.09052 -0.57621,-1.4612 -1.28055,-0.82378 -0.43095,0.38999 -0.54794,0.36908 -1.51151,-0.27017 -0.57441,-0.38109 -1.30558,-0.9285 -1.62479,-1.21647 -0.51931,-0.46849 -0.54136,-0.58313 -0.20967,-1.08937 0.56582,-0.86354 0.11271,-1.42037 -0.81269,-0.99873 -0.39303,0.17908 -0.74178,0.29137 -0.77503,0.24954 -0.0332,-0.0418 -0.43679,-0.603 -0.89679,-1.24704 l -0.83635,-1.17099 0.6701,-0.69944 c 0.73273,-0.7648 0.64536,-1.05962 -0.314,-1.05962 -0.73359,0 -1.03443,-0.63293 -1.50918,-3.175 -0.36475,-1.95313 -0.505,-2.03524 -2.95391,-1.72926 -1.34016,0.16744 -1.38087,0.19785 -1.53797,1.14906 -0.0888,0.53739 -0.28707,1.42356 -0.44071,1.96926 l -0.27934,0.99219 h -4.57241 -4.5724 l 0.33956,-2.18281 c 0.18675,-1.20055 0.40148,-2.51024 0.47718,-2.91042 l 0.13763,-0.7276 h -4.08915 -4.08916 l -1.77442,-1.60806 c -2.17334,-1.96956 -3.7313,-2.78541 -6.01604,-3.1504 -1.64022,-0.26203 -4.01624,-0.0863 -5.21392,0.38553 -0.43402,0.171 -1.04955,-1.72214 -2.57839,-7.930198 -0.87215,-3.5415 -0.92599,-4.19952 -0.38308,-4.68238 1.0738,-0.95503 2.38634,-1.06838 13.89627,-1.20009 10.17546,-0.11644 11.31515,-0.17258 11.43015,-0.56302 0.25211,-0.85599 2.23942,-11.04628 2.41943,-12.40607 l 0.18388,-1.38906 h -1.4893 c -1.8043,0 -1.89028,-0.2948 -0.48595,-1.6661 l 1.00335,-0.97974 h 13.76283 13.76282 l 0.42305,1.32292 0.42305,1.32292 h -1.56317 c -1.31502,0 -1.56207,0.0735 -1.55619,0.46302 0.009,0.57283 2.01798,9.58763 2.17115,9.7408 0.061,0.061 1.16677,0.29506 2.45724,0.5201 2.95656,0.51558 4.37825,1.14365 5.97988,2.64179 0.69758,0.6525 1.51155,1.18637 1.80882,1.18637 0.37079,0 0.54051,0.17255 0.54051,0.54952 0,0.30223 0.35718,0.90671 0.79375,1.34327 0.54244,0.54245 0.79375,1.05488 0.79375,1.61855 v 0.8248 l -0.66004,-0.89463 c -2.30822,-3.12862 -6.80796,-5.02901 -11.90767,-5.02901 -6.68382,0 -12.27214,3.2014 -16.85764,9.657288 -0.99092,1.39511 -2.32466,3.89478 -2.32466,4.35683 0,0.15679 0.64884,0.27204 1.52135,0.27024 l 1.52136,-0.003 0.92605,-2.00106 c 0.86669,-1.87281 0.97342,-1.99413 1.66529,-1.89306 0.93402,0.13646 1.13849,-0.18475 0.62069,-0.97502 -0.38359,-0.585432 -0.35551,-0.677172 0.52077,-1.700903 0.50943,-0.595145 1.99095,-1.794265 3.29226,-2.664705 2.29531,-1.5353 3.84959,-2.13147 4.50346,-1.72735 0.18994,0.11739 0.51048,-0.0585 0.7958,-0.4368 0.45282,-0.60032 0.62692,-0.63305 3.33713,-0.62728 3.19371,0.007 4.98049,0.40245 5.17492,1.14595 0.0963,0.36815 0.31428,0.45905 0.89618,0.37364 0.54303,-0.0797 0.91529,0.0488 1.26702,0.43751 0.27394,0.3027 0.63344,0.55036 0.79889,0.55036 0.42274,0 4.11989,3.848846 5.12889,5.339338 0.98246,1.45127 1.01686,1.6884 0.30911,2.1304 -0.79109,0.49404 -0.65111,0.99693 0.27752,0.99693 0.69259,0 0.87888,0.15904 1.31711,1.12448 0.61558,1.35615 0.66149,2.39917 0.12516,2.84427 -0.57804,0.47974 -0.48571,1.15845 0.19844,1.45861 0.47768,0.20957 0.61132,0.51097 0.67627,1.52527 0.0785,1.22584 0.0525,1.27598 -0.8599,1.65719 -1.03393,0.43201 -1.21463,1.01461 -0.44281,1.42768 0.8019,0.42916 0.83539,0.94179 0.18612,2.84834 -0.61126,1.79493 -0.61436,1.79838 -1.54315,1.72483 -1.10187,-0.0873 -1.51622,0.54009 -0.84591,1.28077 0.74396,0.82207 0.34465,1.5971 -1.75742,3.41098 -1.10392,0.95257 -2.32039,1.8988 -2.70328,2.10274 -0.63669,0.3391 -0.73665,0.32077 -1.17019,-0.21463 -0.65996,-0.81502 -1.50293,-0.49511 -1.30486,0.49519 0.13989,0.69947 0.11516,0.71254 -2.18018,1.15255 -2.07017,0.39685 -4.74176,0.53376 -5.84791,0.2997 z m 6.95473,-5.397 c 4.29496,-2.12806 7.24504,-7.45798 6.66965,-12.05009 -0.5939,-4.73972 -2.94874,-8.24608 -6.72888,-10.019272 -1.47699,-0.69283 -2.11131,-0.82831 -4.24967,-0.907691 -2.85038,-0.1058 -4.65786,0.371081 -6.92808,1.827883 -6.20487,3.98165 -7.00831,13.24793 -1.61779,18.65828 2.67983,2.68967 4.84343,3.56435 8.54587,3.45481 2.23946,-0.0662 2.70931,-0.17136 4.3089,-0.96392 z m -6.19522,-1.08421 c -3.01697,-0.49164 -5.62591,-2.48904 -7.13528,-5.46274 -0.85505,-1.68457 -0.90028,-1.91396 -0.90028,-4.56562 0,-2.47537 0.0804,-2.96349 0.7091,-4.30485 0.93442,-1.99364 2.84485,-3.9985 4.65327,-4.88328 2.09697,-1.02594 5.1329,-1.16389 7.33568,-0.33331 1.99431,0.75197 4.21943,2.90683 5.30967,5.14199 0.70557,1.44655 0.77447,1.83417 0.77602,4.36563 0.002,2.5606 -0.0624,2.91278 -0.81709,4.49792 -1.86743,3.92248 -5.938,6.19498 -9.93109,5.54426 z m 4.39986,-6.27631 c 0.58219,-0.40171 1.33435,-1.2643 1.67186,-1.91733 1.69875,-3.28683 -1.18086,-7.41445 -4.91779,-7.04913 -4.33766,0.42404 -6.19818,5.04189 -3.28429,8.15166 1.81537,1.93742 4.43033,2.26369 6.53022,0.8148 z m -4.30505,-1.5617 c -0.53921,-0.21695 -1.11891,-1.56827 -1.11891,-2.60826 0,-1.3243 1.17386,-2.50633 2.48901,-2.50633 2.26505,0 3.49867,3.03221 1.88864,4.64224 -0.49794,0.49794 -0.91454,0.64456 -1.78594,0.62854 -0.62507,-0.0115 -1.28784,-0.0818 -1.4728,-0.15619 z m -20.85869,1.34607 c 0.0883,-0.23019 0.1606,-0.76597 0.1606,-1.19063 v -0.77211 h -3.27643 c -3.17412,0 -3.28141,0.0186 -3.43597,0.59531 -0.0878,0.32742 -0.16116,0.86321 -0.16315,1.19063 -0.004,0.58553 0.0503,0.59531 3.27538,0.59531 2.74592,0 3.30509,-0.068 3.43957,-0.41851 z m 6.05625,-5.37192 c 0.36823,-0.36713 -0.11407,-1.08874 -0.72765,-1.08874 -0.32792,0 -1.13207,-0.0734 -1.78702,-0.16321 -1.14967,-0.15758 -1.1958,-0.13707 -1.33551,0.5938 -0.0796,0.41636 -0.08,0.86178 -8.3e-4,0.98983 0.16597,0.26853 3.54054,-0.0221 3.85101,-0.33168 z m -5.72552,-4.72676 c 0.19842,-0.25466 1.2124,-1.89177 2.2533,-3.63802 1.0409,-1.746253 2.36422,-3.873718 2.94072,-4.727718 l 1.04818,-1.55271 -0.73531,-0.58631 c -0.42886,-0.34196 -0.65587,-0.71481 -0.54471,-0.89468 0.32917,-0.5326 -0.85834,-0.34901 -1.42814,0.2208 -0.76685,0.76685 -0.92642,0.649 -0.26309,-0.19429 l 0.56907,-0.72346 -0.65122,-0.53332 c -0.35817,-0.29332 -1.0521,-0.84699 -1.54206,-1.23037 -0.48995,-0.38339 -0.79384,-0.79787 -0.67531,-0.92108 0.22077,-0.22946 0.58424,-0.0505 3.06211,1.50763 l 1.42554,0.89642 0.39267,-0.59139 c 0.44172,-0.66525 1.42918,-0.78065 1.89342,-0.22128 0.24049,0.28977 0.16138,0.58495 -0.36448,1.35984 -1.23906,1.82586 -1.0176,1.77094 2.83933,-0.70407 1.7694,-1.13544 5.16981,-2.42577 7.61734,-2.89049 0.93719,-0.17795 1.77546,-0.39676 1.86282,-0.48624 0.0874,-0.0895 -0.27848,-2.36535 -0.81297,-5.05749 l -0.97182,-4.89479 -9.44833,-0.23383 c -5.19659,-0.1286 -9.52267,-0.1595 -9.61352,-0.0686 -0.27704,0.27704 -2.6675,12.67359 -3.52135,18.26124 -0.6382,4.176358 -0.73733,5.338598 -0.48163,5.646698 0.3645,0.4392 4.17808,2.72058 4.54775,2.72058 0.13252,0 0.40328,-0.20836 0.6017,-0.46302 z m -26.19708,-6.545088 -0.17063,-1.45187 9.4418,-0.0695 9.44181,-0.0695 0.19452,-0.7276 0.19452,-0.7276 h -12.16356 c -6.68997,0 -12.1103,0.0893 -12.04519,0.19843 0.0651,0.10914 0.32221,1.12118 0.57134,2.24896 l 0.45296,2.050516 h 2.12654 2.12653 z m -0.0345,28.528398 c -1.56921,-0.145 -2.28717,-0.3423 -2.13596,-0.58698 0.074,-0.11982 -0.0321,-0.44375 -0.23595,-0.71985 -0.297,-0.40232 -0.43717,-0.43633 -0.7059,-0.17127 -0.52814,0.52093 -0.86421,0.40511 -2.1766,-0.75009 -1.07467,-0.94596 -1.61556,-1.89081 -1.02944,-1.79826 0.51793,0.0818 0.55294,-0.076 0.1297,-0.58466 -0.25324,-0.30433 -0.73046,-0.65938 -1.06049,-0.789 -0.71086,-0.27921 -1.05938,-1.09394 -1.28343,-3.00025 -0.14971,-1.2738 -0.114,-1.41311 0.39646,-1.5466 0.64589,-0.1689 0.75046,-0.86067 0.16411,-1.08567 -0.54327,-0.20848 -0.49807,-0.6019 0.255,-2.21943 0.45428,-0.97576 0.79935,-1.38906 1.15973,-1.38906 0.51307,0 0.95156,-0.65444 0.70538,-1.05277 -0.0718,-0.1162 0.2756,-0.52108 0.77203,-0.89973 0.71186,-0.54296 1.08115,-0.65274 1.74746,-0.51948 0.76737,0.15348 0.82878,0.11833 0.6696,-0.3832 -0.30022,-0.94592 0.62969,-1.1933 3.9269,-1.04464 3.62295,0.16334 4.54594,0.46041 4.53218,1.45871 -0.009,0.63764 0.0808,0.71467 0.7727,0.66397 0.96591,-0.0708 1.51973,0.4028 2.83864,2.42734 0.81264,1.24742 0.99217,1.73419 0.86057,2.33333 -0.13643,0.62119 -0.0668,0.7831 0.38791,0.90201 0.48224,0.12611 0.55226,0.33845 0.53926,1.63542 -0.0211,2.10987 -0.48167,3.31945 -1.30798,3.4354 -0.85756,0.12034 -1.07672,0.50339 -0.72706,1.2708 0.33133,0.7272 0.0132,1.16542 -2.02397,2.78789 l -1.29582,1.03204 -0.74689,-0.71556 c -0.79084,-0.75768 -0.91656,-0.67721 -1.08027,0.69139 -0.0732,0.61187 -0.18819,0.6635 -1.53433,0.68873 -0.80036,0.015 -1.93145,-0.0167 -2.51354,-0.0705 z m 3.48942,-4.8371 c 1.28196,-0.58203 2.63441,-2.28767 2.88869,-3.64307 0.56376,-3.00512 -2.69986,-6.25014 -5.81599,-5.78284 -2.27434,0.34105 -4.40664,2.62473 -4.39275,4.70458 0.008,1.13821 0.83399,2.93068 1.70544,3.69915 1.81845,1.60357 3.61402,1.93046 5.61461,1.02218 z m -3.27385,-1.98246 c -0.97139,-0.43025 -1.67077,-1.60558 -1.67077,-2.8078 0,-1.1403 1.47771,-2.63251 2.60693,-2.63251 1.8473,0 2.94932,1.16796 2.94932,3.12578 0,0.76592 -0.18154,1.21693 -0.69753,1.73293 -0.38365,0.38365 -0.83013,0.69917 -0.99219,0.70115 -0.16206,0.002 -0.53278,0.0599 -0.82382,0.12868 -0.29104,0.0688 -0.90841,-0.0429 -1.37194,-0.24823 z m 10.23549,-34.015308 v -5.02708 h 1.5875 1.5875 v 5.02708 5.02708 h -1.5875 -1.5875 z m 0.52915,-8.76616 v -2.68073 l -0.92604,-0.87337 c -1.67916,-1.58366 -0.95132,-2.84415 0.92522,-1.60232 1.56313,1.03444 1.94033,1.96929 2.06789,5.12518 l 0.10962,2.71198 h -1.08835 -1.08834 z"
           style="fill:#e2e2e2;fill-opacity:1"
           id="path1-9" /><path
           d="m -408.32873,-211.86775 c -0.21828,-0.0462 -0.82966,-0.15427 -1.35862,-0.24017 -0.69544,-0.11294 -0.95185,-0.28266 -0.92604,-0.61293 0.0245,-0.3129 -0.19344,-0.48311 -0.6919,-0.54047 -0.40018,-0.046 -0.7276,0.0433 -0.7276,0.19844 0,0.15519 -0.23813,0.28216 -0.52917,0.28216 -0.42927,0 -0.52917,-0.17639 -0.52917,-0.93435 0,-1.09052 -0.57621,-1.4612 -1.28055,-0.82378 -0.43095,0.38999 -0.54794,0.36908 -1.51151,-0.27017 -0.57441,-0.38109 -1.30558,-0.9285 -1.62479,-1.21647 -0.51931,-0.46849 -0.54136,-0.58313 -0.20967,-1.08937 0.56582,-0.86354 0.11271,-1.42037 -0.81269,-0.99873 -0.39303,0.17908 -0.74178,0.29137 -0.77503,0.24954 -0.0332,-0.0418 -0.43679,-0.603 -0.89679,-1.24704 l -0.83635,-1.17099 0.6701,-0.69944 c 0.73273,-0.7648 0.64536,-1.05962 -0.314,-1.05962 -0.73359,0 -1.03443,-0.63293 -1.50918,-3.175 -0.36475,-1.95313 -0.505,-2.03524 -2.95391,-1.72926 -1.34016,0.16744 -1.38087,0.19785 -1.53797,1.14906 -0.0888,0.53739 -0.28707,1.42356 -0.44071,1.96926 l -0.27934,0.99219 h -4.57241 -4.5724 l 0.33956,-2.18281 c 0.18675,-1.20055 0.40148,-2.51024 0.47718,-2.91042 l 0.13763,-0.7276 h -4.08915 -4.08916 l -1.77442,-1.60806 c -2.17334,-1.96956 -3.7313,-2.78541 -6.01604,-3.1504 -1.64022,-0.26203 -4.01624,-0.0863 -5.21392,0.38553 -0.43402,0.171 -1.04955,-1.72214 -2.57839,-7.9302 -0.87215,-3.5415 -0.92599,-4.19952 -0.38308,-4.68238 1.0738,-0.95503 2.38634,-1.06838 13.89627,-1.20009 10.17546,-0.11644 11.31515,-0.17258 11.43015,-0.56302 0.25211,-0.85599 2.23942,-11.04628 2.41943,-12.40607 l 0.18388,-1.38906 h -1.4893 c -1.8043,0 -1.89028,-0.2948 -0.48595,-1.6661 l 1.00335,-0.97974 h 13.76283 13.76282 l 0.42305,1.32292 0.42305,1.32292 h -1.56317 c -1.31502,0 -1.56207,0.0735 -1.55619,0.46302 0.009,0.57283 2.01798,9.58763 2.17115,9.7408 0.061,0.061 1.16677,0.29506 2.45724,0.5201 2.95656,0.51558 4.37825,1.14365 5.97988,2.64179 0.69758,0.6525 1.51155,1.18637 1.80882,1.18637 0.37079,0 0.54051,0.17255 0.54051,0.54952 0,0.30223 0.35718,0.90671 0.79375,1.34327 0.54244,0.54245 0.79375,1.05488 0.79375,1.61855 v 0.8248 l -0.66004,-0.89463 c -2.30822,-3.12862 -6.80796,-5.02901 -11.90767,-5.02901 -6.68382,0 -12.27214,3.2014 -16.85764,9.65729 -0.99092,1.39511 -2.32466,3.89478 -2.32466,4.35683 0,0.15679 0.64884,0.27204 1.52135,0.27024 l 1.52136,-0.003 0.92605,-2.00106 c 0.86669,-1.87281 0.97342,-1.99413 1.66529,-1.89306 0.93402,0.13646 1.13849,-0.18475 0.62069,-0.97502 -0.38359,-0.58543 -0.35551,-0.67717 0.52077,-1.7009 0.50943,-0.59515 1.99095,-1.79427 3.29226,-2.66471 2.29531,-1.5353 3.84959,-2.13147 4.50346,-1.72735 0.18994,0.11739 0.51048,-0.0585 0.7958,-0.4368 0.45282,-0.60032 0.62692,-0.63305 3.33713,-0.62728 3.19371,0.007 4.98049,0.40245 5.17492,1.14595 0.0963,0.36815 0.31428,0.45905 0.89618,0.37364 0.54303,-0.0797 0.91529,0.0488 1.26702,0.43751 0.27394,0.3027 0.63344,0.55036 0.79889,0.55036 0.42274,0 4.11989,3.84885 5.12889,5.33934 0.98246,1.45127 1.01686,1.6884 0.30911,2.1304 -0.79109,0.49404 -0.65111,0.99693 0.27752,0.99693 0.69259,0 0.87888,0.15904 1.31711,1.12448 0.61558,1.35615 0.66149,2.39917 0.12516,2.84427 -0.57804,0.47974 -0.48571,1.15845 0.19844,1.45861 0.47768,0.20957 0.61132,0.51097 0.67627,1.52527 0.0785,1.22584 0.0525,1.27598 -0.8599,1.65719 -1.03393,0.43201 -1.21463,1.01461 -0.44281,1.42768 0.8019,0.42916 0.83539,0.94179 0.18612,2.84834 -0.61126,1.79493 -0.61436,1.79838 -1.54315,1.72483 -1.10187,-0.0873 -1.51622,0.54009 -0.84591,1.28077 0.74396,0.82207 0.34465,1.5971 -1.75742,3.41098 -1.10392,0.95257 -2.32039,1.8988 -2.70328,2.10274 -0.63669,0.3391 -0.73665,0.32077 -1.17019,-0.21463 -0.65996,-0.81502 -1.50293,-0.49511 -1.30486,0.49519 0.13989,0.69947 0.11516,0.71254 -2.18018,1.15255 -2.07017,0.39685 -4.74176,0.53376 -5.84791,0.2997 z m 6.95473,-5.397 c 4.29496,-2.12806 7.24504,-7.45798 6.66965,-12.05009 -0.5939,-4.73972 -2.94874,-8.24608 -6.72888,-10.01927 -1.47699,-0.69283 -2.11131,-0.82831 -4.24967,-0.90769 -2.85038,-0.1058 -4.65786,0.37108 -6.92808,1.82788 -6.20487,3.98165 -7.00831,13.24793 -1.61779,18.65828 2.67983,2.68967 4.84343,3.56435 8.54587,3.45481 2.23946,-0.0662 2.70931,-0.17136 4.3089,-0.96392 z m -6.19522,-1.08421 c -3.01697,-0.49164 -5.62591,-2.48904 -7.13528,-5.46274 -0.85505,-1.68457 -0.90028,-1.91396 -0.90028,-4.56562 0,-2.47537 0.0804,-2.96349 0.7091,-4.30485 0.93442,-1.99364 2.84485,-3.9985 4.65327,-4.88328 2.09697,-1.02594 5.1329,-1.16389 7.33568,-0.33331 1.99431,0.75197 4.21943,2.90683 5.30967,5.14199 0.70557,1.44655 0.77447,1.83417 0.77602,4.36563 0.002,2.5606 -0.0624,2.91278 -0.81709,4.49792 -1.86743,3.92248 -5.938,6.19498 -9.93109,5.54426 z m 4.39986,-6.27631 c 0.58219,-0.40171 1.33435,-1.2643 1.67186,-1.91733 1.69875,-3.28683 -1.18086,-7.41445 -4.91779,-7.04913 -4.33766,0.42404 -6.19818,5.04189 -3.28429,8.15166 1.81537,1.93742 4.43033,2.26369 6.53022,0.8148 z m -4.30505,-1.5617 c -0.53921,-0.21695 -1.11891,-1.56827 -1.11891,-2.60826 0,-1.3243 1.17386,-2.50633 2.48901,-2.50633 2.26505,0 3.49867,3.03221 1.88864,4.64224 -0.49794,0.49794 -0.91454,0.64456 -1.78594,0.62854 -0.62507,-0.0115 -1.28784,-0.0818 -1.4728,-0.15619 z m -20.85869,1.34607 c 0.0883,-0.23019 0.1606,-0.76597 0.1606,-1.19063 v -0.77211 h -3.27643 c -3.17412,0 -3.28141,0.0186 -3.43597,0.59531 -0.0878,0.32742 -0.16116,0.86321 -0.16315,1.19063 -0.004,0.58553 0.0503,0.59531 3.27538,0.59531 2.74592,0 3.30509,-0.068 3.43957,-0.41851 z m 6.05625,-5.37192 c 0.36823,-0.36713 -0.11407,-1.08874 -0.72765,-1.08874 -0.32792,0 -1.13207,-0.0734 -1.78702,-0.16321 -1.14967,-0.15758 -1.1958,-0.13707 -1.33551,0.5938 -0.0796,0.41636 -0.08,0.86178 -8.3e-4,0.98983 0.16597,0.26853 3.54054,-0.0221 3.85101,-0.33168 z m -5.72552,-4.72676 c 0.19842,-0.25466 1.2124,-1.89177 2.2533,-3.63802 1.0409,-1.74625 2.36422,-3.87372 2.94072,-4.72772 l 1.04818,-1.55271 -0.73531,-0.58631 c -0.42886,-0.34196 -0.65587,-0.71481 -0.54471,-0.89468 0.32917,-0.5326 -0.85834,-0.34901 -1.42814,0.2208 -0.76685,0.76685 -0.92642,0.649 -0.26309,-0.19429 l 0.56907,-0.72346 -0.65122,-0.53332 c -0.35817,-0.29332 -1.0521,-0.84699 -1.54206,-1.23037 -0.48995,-0.38339 -0.79384,-0.79787 -0.67531,-0.92108 0.22077,-0.22946 0.58424,-0.0505 3.06211,1.50763 l 1.42554,0.89642 0.39267,-0.59139 c 0.44172,-0.66525 1.42918,-0.78065 1.89342,-0.22128 0.24049,0.28977 0.16138,0.58495 -0.36448,1.35984 -1.23906,1.82586 -1.0176,1.77094 2.83933,-0.70407 1.7694,-1.13544 5.16981,-2.42577 7.61734,-2.89049 0.93719,-0.17795 1.77546,-0.39676 1.86282,-0.48624 0.0874,-0.0895 -0.27848,-2.36535 -0.81297,-5.05749 l -0.97182,-4.89479 -9.44833,-0.23383 c -5.19659,-0.1286 -9.52267,-0.1595 -9.61352,-0.0686 -0.27704,0.27704 -2.6675,12.67359 -3.52135,18.26124 -0.6382,4.17636 -0.73733,5.3386 -0.48163,5.6467 0.3645,0.4392 4.17808,2.72058 4.54775,2.72058 0.13252,0 0.40328,-0.20836 0.6017,-0.46302 z m -26.19708,-6.54509 -0.17063,-1.45187 9.4418,-0.0695 9.44181,-0.0695 0.19452,-0.7276 0.19452,-0.7276 h -12.16356 c -6.68997,0 -12.1103,0.0893 -12.04519,0.19843 0.0651,0.10914 0.32221,1.12118 0.57134,2.24896 l 0.45296,2.05052 h 2.12654 2.12653 z m -0.0345,28.5284 c -1.56921,-0.145 -2.28717,-0.3423 -2.13596,-0.58698 0.074,-0.11982 -0.0321,-0.44375 -0.23595,-0.71985 -0.297,-0.40232 -0.43717,-0.43633 -0.7059,-0.17127 -0.52814,0.52093 -0.86421,0.40511 -2.1766,-0.75009 -1.07467,-0.94596 -1.61556,-1.89081 -1.02944,-1.79826 0.51793,0.0818 0.55294,-0.076 0.1297,-0.58466 -0.25324,-0.30433 -0.73046,-0.65938 -1.06049,-0.789 -0.71086,-0.27921 -1.05938,-1.09394 -1.28343,-3.00025 -0.14971,-1.2738 -0.114,-1.41311 0.39646,-1.5466 0.64589,-0.1689 0.75046,-0.86067 0.16411,-1.08567 -0.54327,-0.20848 -0.49807,-0.6019 0.255,-2.21943 0.45428,-0.97576 0.79935,-1.38906 1.15973,-1.38906 0.51307,0 0.95156,-0.65444 0.70538,-1.05277 -0.0718,-0.1162 0.2756,-0.52108 0.77203,-0.89973 0.71186,-0.54296 1.08115,-0.65274 1.74746,-0.51948 0.76737,0.15348 0.82878,0.11833 0.6696,-0.3832 -0.30022,-0.94592 0.62969,-1.1933 3.9269,-1.04464 3.62295,0.16334 4.54594,0.46041 4.53218,1.45871 -0.009,0.63764 0.0808,0.71467 0.7727,0.66397 0.96591,-0.0708 1.51973,0.4028 2.83864,2.42734 0.81264,1.24742 0.99217,1.73419 0.86057,2.33333 -0.13643,0.62119 -0.0668,0.7831 0.38791,0.90201 0.48224,0.12611 0.55226,0.33845 0.53926,1.63542 -0.0211,2.10987 -0.48167,3.31945 -1.30798,3.4354 -0.85756,0.12034 -1.07672,0.50339 -0.72706,1.2708 0.33133,0.7272 0.0132,1.16542 -2.02397,2.78789 l -1.29582,1.03204 -0.74689,-0.71556 c -0.79084,-0.75768 -0.91656,-0.67721 -1.08027,0.69139 -0.0732,0.61187 -0.18819,0.6635 -1.53433,0.68873 -0.80036,0.015 -1.93145,-0.0167 -2.51354,-0.0705 z m 3.48942,-4.8371 c 1.28196,-0.58203 2.63441,-2.28767 2.88869,-3.64307 0.56376,-3.00512 -2.69986,-6.25014 -5.81599,-5.78284 -2.27434,0.34105 -4.40664,2.62473 -4.39275,4.70458 0.008,1.13821 0.83399,2.93068 1.70544,3.69915 1.81845,1.60357 3.61402,1.93046 5.61461,1.02218 z m -3.27385,-1.98246 c -0.97139,-0.43025 -1.67077,-1.60558 -1.67077,-2.8078 0,-1.1403 1.47771,-2.63251 2.60693,-2.63251 1.8473,0 2.94932,1.16796 2.94932,3.12578 0,0.76592 -0.18154,1.21693 -0.69753,1.73293 -0.38365,0.38365 -0.83013,0.69917 -0.99219,0.70115 -0.16206,0.002 -0.53278,0.0599 -0.82382,0.12868 -0.29104,0.0688 -0.90841,-0.0429 -1.37194,-0.24823 z m 10.23549,-34.01531 v -5.02708 h 1.5875 1.5875 v 5.02708 5.02708 h -1.5875 -1.5875 z m 0.52915,-8.76616 v -2.68073 l -0.92604,-0.87337 c -1.67916,-1.58366 -0.95132,-2.84415 0.92522,-1.60232 1.56313,1.03444 1.94033,1.96929 2.06789,5.12518 l 0.10962,2.71198 h -1.08835 -1.08834 z"
           style="fill:#2d5016;fill-opacity:1"
           id="path1-9-6" /></g><text
         xml:space="preserve"
         style="font-style:normal;font-variant:normal;font-weight:normal;font-stretch:normal;font-size:21.1667px;font-family:'Nimbus Roman';-inkscape-font-specification:'Nimbus Roman, ';text-align:start;writing-mode:lr-tb;direction:ltr;text-anchor:start;fill:#e2e2e2;fill-opacity:1;stroke:none;stroke-width:4.865;stroke-dasharray:none;stroke-opacity:1"
         x="-295.38275"
         y="284.61072"
         id="text10"><tspan
           sodipodi:role="line"
           id="tspan10"
           style="font-style:normal;font-variant:normal;font-weight:bold;font-stretch:condensed;font-size:21.1667px;font-family:'Noto Sans Gurmukhi Condensed';-inkscape-font-specification:'Noto Sans Gurmukhi Condensed,  Condensed';fill:#e2e2e2;fill-opacity:1;stroke-width:4.865"
           x="-295.38275"
           y="284.61072">EINES COMUNALS</tspan></text></g></g></svg>
