<?xml version="1.0" encoding="UTF-8" standalone="no"?>
<!-- Created with Inkscape (http://www.inkscape.org/) -->

<svg
   width="72.978447mm"
   height="56.463108mm"
   viewBox="0 0 72.978447 56.463108"
   version="1.1"
   id="svg1"
   xml:space="preserve"
   xmlns="http://www.w3.org/2000/svg"
   xmlns:svg="http://www.w3.org/2000/svg"><defs
     id="defs1" /><g
     id="layer1"
     transform="translate(417.86177,87.99584)"><g
       id="g10"><path
         d="m -214.43764,-30.32774 c 0.10219,-0.34394 0.25469,-1.36593 0.33888,-2.27111 0.11892,-1.27844 0.0552,-1.79516 -0.28548,-2.3151 -0.67751,-1.03401 -1.64242,-0.86787 -4.03044,0.69398 -2.41152,1.57721 -3.95214,2.32681 -4.79915,2.33504 -0.5768,0.006 -0.56428,-0.045 0.3528,-1.42622 0.52295,-0.78761 1.01448,-1.90674 1.09231,-2.48695 0.12302,-0.91723 0.054,-1.11225 -0.52879,-1.49411 -0.64317,-0.42142 -0.79332,-0.39664 -3.71396,0.61315 -3.20268,1.1073 -5.99705,1.63801 -5.99705,1.13897 0,-0.1553 0.52675,-0.64477 1.17056,-1.08773 0.64381,-0.44295 1.41772,-1.11957 1.71979,-1.5036 0.67649,-0.86002 0.72066,-2.10729 0.0862,-2.43471 -0.25466,-0.13142 -1.80238,-0.3206 -3.43938,-0.42038 -2.82097,-0.17196 -5.00709,-0.62141 -5.88718,-1.21036 -0.52428,-0.35085 -0.0423,-0.67805 1.31961,-0.89583 1.28028,-0.20472 2.38456,-1.08262 2.38456,-1.89571 0,-0.75635 -0.61504,-1.11464 -3.90654,-2.27573 -2.45013,-0.8643 -4.92066,-2.32633 -5.37938,-3.18346 -0.26785,-0.50048 -0.20027,-0.5106 2.2221,-0.33279 2.30231,0.169 2.54099,0.14076 3.04166,-0.35991 1.04684,-1.04684 0.39233,-2.0886 -2.57248,-4.09449 -1.08044,-0.73099 -2.45214,-1.81742 -3.04822,-2.4143 -1.05535,-1.05678 -2.18164,-2.97498 -1.90766,-3.24897 0.075,-0.075 0.90916,0.17279 1.85368,0.55065 1.98044,0.79231 2.73119,0.85045 3.55255,0.27515 0.93218,-0.65292 0.75929,-1.71339 -0.53644,-3.29057 -2.15789,-2.6266 -2.56559,-3.24064 -3.09999,-4.66896 -0.56001,-1.49675 -0.70141,-2.74109 -0.3115,-2.74109 0.1246,0 0.74967,0.39879 1.38906,0.88621 1.3625,1.03864 2.69457,1.75963 3.25106,1.75963 0.54412,0 1.21875,-1.03226 1.21875,-1.86483 0,-0.37882 -0.31424,-1.57272 -0.6983,-2.65311 -0.98576,-2.77295 -1.22704,-7.79187 -0.34849,-7.24889 0.14333,0.0886 0.51047,0.659 0.81585,1.26759 0.83363,1.66132 1.52147,2.29715 2.48502,2.29715 1.45285,0 1.64624,-0.50238 1.78237,-4.63021 0.11351,-3.44187 0.47659,-5.42396 0.99358,-5.42396 0.11866,0 0.47305,0.80368 0.78752,1.78594 0.70628,2.20611 1.18653,2.97657 1.85537,2.97657 0.77194,0 1.2342,-0.92179 1.82587,-3.64092 0.54724,-2.51492 1.33271,-4.62086 1.84056,-4.93472 0.30483,-0.1884 0.43427,0.2337 0.69925,2.28038 0.21365,1.65016 0.86936,2.46449 1.79698,2.23167 0.5283,-0.13259 0.9943,-0.71089 1.93678,-2.40346 1.39339,-2.50236 2.96414,-4.67855 3.50467,-4.85554 0.28268,-0.0926 0.31989,0.11571 0.17447,0.97648 -0.36072,2.13507 -0.25671,3.46474 0.31582,4.03726 0.50827,0.50827 0.58117,0.51423 1.36052,0.11121 0.45291,-0.2342 1.74535,-1.25498 2.8721,-2.26838 1.9938,-1.79323 4.12961,-3.18014 4.43187,-2.87787 0.0823,0.0823 -0.10187,0.71811 -0.40922,1.41294 -0.68031,1.53794 -0.71635,2.90988 -0.0945,3.59702 0.66961,0.7399 1.14754,0.65279 3.74161,-0.68202 2.45917,-1.2654 4.86724,-2.24447 5.52035,-2.24447 0.26029,0 0.0368,0.45075 -0.66151,1.33418 -1.27048,1.60728 -1.58693,2.87814 -0.95632,3.84058 0.64454,0.98369 1.03899,1.04506 3.58276,0.55742 2.51449,-0.48202 6.35337,-0.59324 6.35337,-0.18406 0,0.14105 -0.68408,0.69405 -1.52017,1.22889 -1.85886,1.1891 -2.22152,1.63055 -2.04016,2.48341 0.27096,1.27413 1.17095,1.75305 3.65291,1.94383 2.4701,0.18987 4.25143,0.69144 5.63358,1.58627 1.09853,0.7112 1.14407,1.2324 0.10769,1.2324 -1.36593,0 -3.49169,0.56825 -3.99005,1.0666 -0.53695,0.53696 -0.44448,1.40817 0.23237,2.18944 0.22773,0.26285 1.50265,1.00039 2.83314,1.63897 1.86966,0.89734 2.72864,1.49974 3.78197,2.65226 1.20815,1.3219 1.69696,2.24231 1.19085,2.24231 -0.0946,0 -1.09772,-0.18757 -2.2291,-0.41681 -2.44785,-0.496 -3.15512,-0.28249 -3.15512,0.95248 0,0.56059 0.35543,1.17561 1.25677,2.17466 2.01946,2.23839 3.14026,3.6981 3.70879,4.83029 0.58869,1.17234 1.15997,3.04272 0.92936,3.04272 -0.0813,0 -0.75633,-0.37485 -1.50003,-0.83299 -0.7437,-0.45814 -1.84189,-0.88851 -2.44042,-0.95637 -0.91813,-0.10409 -1.15593,-0.0267 -1.52135,0.49498 -0.23821,0.34011 -0.43312,0.77841 -0.43312,0.97401 0,0.1956 0.59984,1.7078 1.33298,3.36044 0.76669,1.72826 1.40382,3.60285 1.49971,4.41251 l 0.16672,1.40772 -1.36018,-1.22293 c -1.47766,-1.32854 -2.34963,-1.64094 -3.28554,-1.1771 -0.78735,0.39021 -0.87871,1.41399 -0.35322,3.95806 0.4172,2.0198 0.55843,5.48666 0.23661,5.80847 -0.0965,0.0965 -0.69781,-0.60328 -1.33629,-1.55503 -1.30691,-1.94815 -2.18639,-2.47455 -3.1163,-1.86525 -0.50521,0.33103 -0.61403,0.71323 -0.77413,2.71901 -0.10247,1.28361 -0.31569,2.86963 -0.47384,3.52447 -0.37696,1.56089 -1.25503,3.29919 -1.51945,3.00804 -0.11485,-0.12645 -0.45818,-1.06335 -0.76296,-2.082 -0.67914,-2.26982 -1.19655,-3.04271 -2.03697,-3.04271 -0.84139,0 -1.26811,0.71629 -1.96556,3.29933 -0.59001,2.1851 -1.60688,4.32529 -2.3932,5.0369 -0.4228,0.38262 -0.4627,0.29507 -0.59036,-1.29527 -0.17055,-2.12471 -0.89257,-3.70043 -1.75126,-3.82196 -0.7437,-0.10524 -1.87972,0.89626 -2.80227,2.47045 -0.67023,1.14366 -2.81156,3.27984 -3.83887,3.82964 -0.5798,0.3103 -0.60625,0.29224 -0.43183,-0.29479 z m 2.11095,-9.45219 c 1.40414,-1.21873 1.45776,-3.45176 0.11441,-4.76514 l -0.78356,-0.76607 1.40772,-0.33317 c 5.54222,-1.31169 10.3542,-5.81137 11.87645,-11.10565 0.18828,-0.65484 0.36946,-1.22931 0.40264,-1.27659 0.0332,-0.0473 0.54541,0.23507 1.13833,0.62745 0.952,0.63 1.26976,0.69954 2.71796,0.59478 1.51007,-0.10922 1.70945,-0.19906 2.51811,-1.13454 0.74701,-0.86416 0.8782,-1.21756 0.8782,-2.36564 0,-1.63631 -0.83715,-3.03382 -2.20664,-3.68369 -1.20815,-0.5733 -2.08937,-0.54844 -3.34961,0.0945 -0.57049,0.29104 -1.14447,0.52917 -1.27552,0.52917 -0.13105,0 -0.31112,-0.62508 -0.40016,-1.38906 -0.20945,-1.79709 -1.90951,-5.21761 -3.4769,-6.9955 -1.96723,-2.23143 -5.01926,-4.07429 -8.02389,-4.84496 -1.00328,-0.25733 -1.11646,-0.36067 -0.95653,-0.87336 0.19285,-0.61821 0.57839,-0.96769 1.07485,-0.97432 0.16683,-0.002 0.686,-0.4399 1.15373,-0.9726 0.78119,-0.88972 0.84074,-1.085 0.73174,-2.39944 -0.0952,-1.14837 -0.27567,-1.58789 -0.91385,-2.22607 -1.52573,-1.52572 -3.98723,-1.21529 -5.12211,0.64597 -0.85633,1.40443 -0.58637,3.09617 0.71114,4.45651 0.42089,0.44127 0.63421,0.92911 0.57849,1.32292 -0.0819,0.57877 -0.24206,0.63663 -2.21529,0.80036 -3.80413,0.31567 -6.62946,1.68909 -9.47926,4.60796 -1.67785,1.71851 -3.44485,4.89735 -3.94403,7.09534 l -0.33574,1.47829 -0.94002,-0.66884 c -1.29101,-0.91856 -2.57407,-1.08785 -3.80782,-0.5024 -2.40123,1.13946 -2.68473,4.46172 -0.52566,6.16004 1.00153,0.7878 2.00339,0.91842 3.32673,0.4337 1.8403,-0.67406 1.85147,-0.66882 2.34224,1.09987 0.92278,3.32556 2.82442,6.1748 5.56868,8.34358 1.9032,1.5041 3.37757,2.16365 7.38182,3.30218 0.28924,0.0822 0.25302,0.23418 -0.16538,0.69372 -1.20435,1.32275 -1.4557,2.76496 -0.72736,4.17342 0.22202,0.42933 0.43038,0.7824 0.46302,0.78459 0.0327,0.002 0.5356,0.17694 1.11769,0.38833 1.18594,0.43068 2.39723,0.29373 3.14537,-0.35561 z"
         style="fill:#17280b;fill-opacity:1"
         id="path1-2-1" /><path
         d="m -363.38122,-31.64739 c -0.21828,-0.0462 -0.82966,-0.15427 -1.35862,-0.24017 -0.69544,-0.11294 -0.95185,-0.28266 -0.92604,-0.61293 0.0245,-0.3129 -0.19344,-0.48311 -0.6919,-0.54047 -0.40018,-0.046 -0.7276,0.0433 -0.7276,0.19844 0,0.15519 -0.23813,0.28216 -0.52917,0.28216 -0.42927,0 -0.52917,-0.17639 -0.52917,-0.93435 0,-1.09052 -0.57621,-1.4612 -1.28055,-0.82378 -0.43095,0.38999 -0.54794,0.36908 -1.51151,-0.27017 -0.57441,-0.38109 -1.30558,-0.9285 -1.62479,-1.21647 -0.51931,-0.46849 -0.54136,-0.58313 -0.20967,-1.08937 0.56582,-0.86354 0.11271,-1.42037 -0.81269,-0.99873 -0.39303,0.17908 -0.74178,0.29137 -0.77503,0.24954 -0.0332,-0.0418 -0.43679,-0.603 -0.89679,-1.24704 l -0.83635,-1.17099 0.6701,-0.69944 c 0.73273,-0.7648 0.64536,-1.05962 -0.314,-1.05962 -0.73359,0 -1.03443,-0.63293 -1.50918,-3.175 -0.36475,-1.95313 -0.505,-2.03524 -2.95391,-1.72926 -1.34016,0.16744 -1.38087,0.19785 -1.53797,1.14906 -0.0888,0.53739 -0.28707,1.42356 -0.44071,1.96926 l -0.27934,0.99219 h -4.57241 -4.5724 l 0.33956,-2.18281 c 0.18675,-1.20055 0.40148,-2.51024 0.47718,-2.91042 l 0.13763,-0.7276 h -4.08915 -4.08916 l -1.77442,-1.60806 c -2.17334,-1.96956 -3.7313,-2.78541 -6.01604,-3.1504 -1.64022,-0.26203 -4.01624,-0.0863 -5.21392,0.38553 -0.43402,0.171 -1.04955,-1.72214 -2.57839,-7.9302 -0.87215,-3.5415 -0.92599,-4.19952 -0.38308,-4.68238 1.0738,-0.95503 2.38634,-1.06838 13.89627,-1.20009 10.17546,-0.11644 11.31515,-0.17258 11.43015,-0.56302 0.25211,-0.85599 2.23942,-11.04628 2.41943,-12.40607 l 0.18388,-1.38906 h -1.4893 c -1.8043,0 -1.89028,-0.2948 -0.48595,-1.6661 l 1.00335,-0.97974 h 13.76283 13.76282 l 0.42305,1.32292 0.42305,1.32292 h -1.56317 c -1.31502,0 -1.56207,0.0735 -1.55619,0.46302 0.009,0.57283 2.01798,9.58763 2.17115,9.7408 0.061,0.061 1.16677,0.29506 2.45724,0.5201 2.95656,0.51558 4.37825,1.14365 5.97988,2.64179 0.69758,0.6525 1.51155,1.18637 1.80882,1.18637 0.37079,0 0.54051,0.17255 0.54051,0.54952 0,0.30223 0.35718,0.90671 0.79375,1.34327 0.54244,0.54245 0.79375,1.05488 0.79375,1.61855 v 0.8248 l -0.66004,-0.89463 c -2.30822,-3.12862 -6.80796,-5.02901 -11.90767,-5.02901 -6.68382,0 -12.27214,3.2014 -16.85764,9.65729 -0.99092,1.39511 -2.32466,3.89478 -2.32466,4.35683 0,0.15679 0.64884,0.27204 1.52135,0.27024 l 1.52136,-0.003 0.92605,-2.00106 c 0.86669,-1.87281 0.97342,-1.99413 1.66529,-1.89306 0.93402,0.13646 1.13849,-0.18475 0.62069,-0.97502 -0.38359,-0.58543 -0.35551,-0.67717 0.52077,-1.7009 0.50943,-0.59515 1.99095,-1.79427 3.29226,-2.66471 2.29531,-1.5353 3.84959,-2.13147 4.50346,-1.72735 0.18994,0.11739 0.51048,-0.0585 0.7958,-0.4368 0.45282,-0.60032 0.62692,-0.63305 3.33713,-0.62728 3.19371,0.007 4.98049,0.40245 5.17492,1.14595 0.0963,0.36815 0.31428,0.45905 0.89618,0.37364 0.54303,-0.0797 0.91529,0.0488 1.26702,0.43751 0.27394,0.3027 0.63344,0.55036 0.79889,0.55036 0.42274,0 4.11989,3.84885 5.12889,5.33934 0.98246,1.45127 1.01686,1.6884 0.30911,2.1304 -0.79109,0.49404 -0.65111,0.99693 0.27752,0.99693 0.69259,0 0.87888,0.15904 1.31711,1.12448 0.61558,1.35615 0.66149,2.39917 0.12516,2.84427 -0.57804,0.47974 -0.48571,1.15845 0.19844,1.45861 0.47768,0.20957 0.61132,0.51097 0.67627,1.52527 0.0785,1.22584 0.0525,1.27598 -0.8599,1.65719 -1.03393,0.43201 -1.21463,1.01461 -0.44281,1.42768 0.8019,0.42916 0.83539,0.94179 0.18612,2.84834 -0.61126,1.79493 -0.61436,1.79838 -1.54315,1.72483 -1.10187,-0.0873 -1.51622,0.54009 -0.84591,1.28077 0.74396,0.82207 0.34465,1.5971 -1.75742,3.41098 -1.10392,0.95257 -2.32039,1.8988 -2.70328,2.10274 -0.63669,0.3391 -0.73665,0.32077 -1.17019,-0.21463 -0.65996,-0.81502 -1.50293,-0.49511 -1.30486,0.49519 0.13989,0.69947 0.11516,0.71254 -2.18018,1.15255 -2.07017,0.39685 -4.74176,0.53376 -5.84791,0.2997 z m 6.95473,-5.397 c 4.29496,-2.12806 7.24504,-7.45798 6.66965,-12.05009 -0.5939,-4.73972 -2.94874,-8.24608 -6.72888,-10.01927 -1.47699,-0.69283 -2.11131,-0.82831 -4.24967,-0.90769 -2.85038,-0.1058 -4.65786,0.37108 -6.92808,1.82788 -6.20487,3.98165 -7.00831,13.24793 -1.61779,18.65828 2.67983,2.68967 4.84343,3.56435 8.54587,3.45481 2.23946,-0.0662 2.70931,-0.17136 4.3089,-0.96392 z m -6.19522,-1.08421 c -3.01697,-0.49164 -5.62591,-2.48904 -7.13528,-5.46274 -0.85505,-1.68457 -0.90028,-1.91396 -0.90028,-4.56562 0,-2.47537 0.0804,-2.96349 0.7091,-4.30485 0.93442,-1.99364 2.84485,-3.9985 4.65327,-4.88328 2.09697,-1.02594 5.1329,-1.16389 7.33568,-0.33331 1.99431,0.75197 4.21943,2.90683 5.30967,5.14199 0.70557,1.44655 0.77447,1.83417 0.77602,4.36563 0.002,2.5606 -0.0624,2.91278 -0.81709,4.49792 -1.86743,3.92248 -5.938,6.19498 -9.93109,5.54426 z m 4.39986,-6.27631 c 0.58219,-0.40171 1.33435,-1.2643 1.67186,-1.91733 1.69875,-3.28683 -1.18086,-7.41445 -4.91779,-7.04913 -4.33766,0.42404 -6.19818,5.04189 -3.28429,8.15166 1.81537,1.93742 4.43033,2.26369 6.53022,0.8148 z m -4.30505,-1.5617 c -0.53921,-0.21695 -1.11891,-1.56827 -1.11891,-2.60826 0,-1.3243 1.17386,-2.50633 2.48901,-2.50633 2.26505,0 3.49867,3.03221 1.88864,4.64224 -0.49794,0.49794 -0.91454,0.64456 -1.78594,0.62854 -0.62507,-0.0115 -1.28784,-0.0818 -1.4728,-0.15619 z m -20.85869,1.34607 c 0.0883,-0.23019 0.1606,-0.76597 0.1606,-1.19063 v -0.77211 h -3.27643 c -3.17412,0 -3.28141,0.0186 -3.43597,0.59531 -0.0878,0.32742 -0.16116,0.86321 -0.16315,1.19063 -0.004,0.58553 0.0503,0.59531 3.27538,0.59531 2.74592,0 3.30509,-0.068 3.43957,-0.41851 z m 6.05625,-5.37192 c 0.36823,-0.36713 -0.11407,-1.08874 -0.72765,-1.08874 -0.32792,0 -1.13207,-0.0734 -1.78702,-0.16321 -1.14967,-0.15758 -1.1958,-0.13707 -1.33551,0.5938 -0.0796,0.41636 -0.08,0.86178 -8.3e-4,0.98983 0.16597,0.26853 3.54054,-0.0221 3.85101,-0.33168 z m -5.72552,-4.72676 c 0.19842,-0.25466 1.2124,-1.89177 2.2533,-3.63802 1.0409,-1.74625 2.36422,-3.87372 2.94072,-4.72772 l 1.04818,-1.55271 -0.73531,-0.58631 c -0.42886,-0.34196 -0.65587,-0.71481 -0.54471,-0.89468 0.32917,-0.5326 -0.85834,-0.34901 -1.42814,0.2208 -0.76685,0.76685 -0.92642,0.649 -0.26309,-0.19429 l 0.56907,-0.72346 -0.65122,-0.53332 c -0.35817,-0.29332 -1.0521,-0.84699 -1.54206,-1.23037 -0.48995,-0.38339 -0.79384,-0.79787 -0.67531,-0.92108 0.22077,-0.22946 0.58424,-0.0505 3.06211,1.50763 l 1.42554,0.89642 0.39267,-0.59139 c 0.44172,-0.66525 1.42918,-0.78065 1.89342,-0.22128 0.24049,0.28977 0.16138,0.58495 -0.36448,1.35984 -1.23906,1.82586 -1.0176,1.77094 2.83933,-0.70407 1.7694,-1.13544 5.16981,-2.42577 7.61734,-2.89049 0.93719,-0.17795 1.77546,-0.39676 1.86282,-0.48624 0.0874,-0.0895 -0.27848,-2.36535 -0.81297,-5.05749 l -0.97182,-4.89479 -9.44833,-0.23383 c -5.19659,-0.1286 -9.52267,-0.1595 -9.61352,-0.0686 -0.27704,0.27704 -2.6675,12.67359 -3.52135,18.26124 -0.6382,4.17636 -0.73733,5.3386 -0.48163,5.6467 0.3645,0.4392 4.17808,2.72058 4.54775,2.72058 0.13252,0 0.40328,-0.20836 0.6017,-0.46302 z m -26.19708,-6.54509 -0.17063,-1.45187 9.4418,-0.0695 9.44181,-0.0695 0.19452,-0.7276 0.19452,-0.7276 h -12.16356 c -6.68997,0 -12.1103,0.0893 -12.04519,0.19843 0.0651,0.10914 0.32221,1.12118 0.57134,2.24896 l 0.45296,2.05052 h 2.12654 2.12653 z m -0.0345,28.5284 c -1.56921,-0.145 -2.28717,-0.3423 -2.13596,-0.58698 0.074,-0.11982 -0.0321,-0.44375 -0.23595,-0.71985 -0.297,-0.40232 -0.43717,-0.43633 -0.7059,-0.17127 -0.52814,0.52093 -0.86421,0.40511 -2.1766,-0.75009 -1.07467,-0.94596 -1.61556,-1.89081 -1.02944,-1.79826 0.51793,0.0818 0.55294,-0.076 0.1297,-0.58466 -0.25324,-0.30433 -0.73046,-0.65938 -1.06049,-0.789 -0.71086,-0.27921 -1.05938,-1.09394 -1.28343,-3.00025 -0.14971,-1.2738 -0.114,-1.41311 0.39646,-1.5466 0.64589,-0.1689 0.75046,-0.86067 0.16411,-1.08567 -0.54327,-0.20848 -0.49807,-0.6019 0.255,-2.21943 0.45428,-0.97576 0.79935,-1.38906 1.15973,-1.38906 0.51307,0 0.95156,-0.65444 0.70538,-1.05277 -0.0718,-0.1162 0.2756,-0.52108 0.77203,-0.89973 0.71186,-0.54296 1.08115,-0.65274 1.74746,-0.51948 0.76737,0.15348 0.82878,0.11833 0.6696,-0.3832 -0.30022,-0.94592 0.62969,-1.1933 3.9269,-1.04464 3.62295,0.16334 4.54594,0.46041 4.53218,1.45871 -0.009,0.63764 0.0808,0.71467 0.7727,0.66397 0.96591,-0.0708 1.51973,0.4028 2.83864,2.42734 0.81264,1.24742 0.99217,1.73419 0.86057,2.33333 -0.13643,0.62119 -0.0668,0.7831 0.38791,0.90201 0.48224,0.12611 0.55226,0.33845 0.53926,1.63542 -0.0211,2.10987 -0.48167,3.31945 -1.30798,3.4354 -0.85756,0.12034 -1.07672,0.50339 -0.72706,1.2708 0.33133,0.7272 0.0132,1.16542 -2.02397,2.78789 l -1.29582,1.03204 -0.74689,-0.71556 c -0.79084,-0.75768 -0.91656,-0.67721 -1.08027,0.69139 -0.0732,0.61187 -0.18819,0.6635 -1.53433,0.68873 -0.80036,0.015 -1.93145,-0.0167 -2.51354,-0.0705 z m 3.48942,-4.8371 c 1.28196,-0.58203 2.63441,-2.28767 2.88869,-3.64307 0.56376,-3.00512 -2.69986,-6.25014 -5.81599,-5.78284 -2.27434,0.34105 -4.40664,2.62473 -4.39275,4.70458 0.008,1.13821 0.83399,2.93068 1.70544,3.69915 1.81845,1.60357 3.61402,1.93046 5.61461,1.02218 z m -3.27385,-1.98246 c -0.97139,-0.43025 -1.67077,-1.60558 -1.67077,-2.8078 0,-1.1403 1.47771,-2.63251 2.60693,-2.63251 1.8473,0 2.94932,1.16796 2.94932,3.12578 0,0.76592 -0.18154,1.21693 -0.69753,1.73293 -0.38365,0.38365 -0.83013,0.69917 -0.99219,0.70115 -0.16206,0.002 -0.53278,0.0599 -0.82382,0.12868 -0.29104,0.0688 -0.90841,-0.0429 -1.37194,-0.24823 z m 10.23549,-34.01531 v -5.02708 h 1.5875 1.5875 v 5.02708 5.02708 h -1.5875 -1.5875 z m 0.52915,-8.76616 v -2.68073 l -0.92604,-0.87337 c -1.67916,-1.58366 -0.95132,-2.84415 0.92522,-1.60232 1.56313,1.03444 1.94033,1.96929 2.06789,5.12518 l 0.10962,2.71198 h -1.08835 -1.08834 z"
         style="fill:#1a1a1a;fill-opacity:1"
         id="path1-9-6" /><path
         style="fill:#e2e2e2;fill-opacity:1"
         d="m -286.44424,251.77142 c 3.09104,-3.09356 5.62007,-5.72197 5.62007,-5.84091 0,-0.27299 -10.3254,-11.4209 -10.57826,-11.4209 -0.10266,0 -2.49108,2.18256 -5.30759,4.85013 -5.86489,5.55472 -5.27329,5.47784 -5.96368,0.775 -0.95716,-6.52011 0.38556,-12.76317 3.86284,-17.96051 2.05133,-3.06603 1.65893,-2.87816 6.01168,-2.87816 2.09425,0 4.01504,0.11095 4.26842,0.24655 0.25337,0.1356 5.55793,5.43781 11.78789,11.78267 12.90234,13.14031 11.83307,11.54115 10.0902,15.09057 -1.74035,3.54427 -6.77741,7.5967 -11.62095,9.34929 -3.46173,1.2526 -5.78407,1.63092 -10.01155,1.63092 h -3.77916 z m 145.84926,5.46686 c -7.5576,-0.84336 -12.57215,-3.1042 -17.21081,-7.7596 -1.90589,-1.91277 -3.34819,-4.24955 -3.84525,-6.23004 -0.19594,-0.78067 -0.11077,-0.87345 13.78917,-15.02288 l 9.81192,-9.98803 h 3.86625 3.86624 l 0.96878,1.12448 c 4.95408,5.75026 7.16353,14.74499 5.42714,22.09407 l -0.57858,2.44875 -1.47352,-1.25813 c -0.81044,-0.69197 -3.15468,-3.01234 -5.20942,-5.15638 l -3.73589,-3.89825 -5.68228,5.51354 -5.68229,5.51355 3.70417,3.89011 c 2.03729,2.13956 4.69697,4.95478 5.9104,6.25606 l 2.20623,2.36596 h -1.04294 c -0.57362,0 -1.74502,0.0473 -2.60311,0.10506 -0.85809,0.0578 -1.97688,0.0586 -2.48621,0.002 z m -135.48006,-28.2983 -11.75836,-11.76058 h -2.84539 c -1.56495,0 -2.84539,-0.10983 -2.84539,-0.24406 0,-0.41504 2.71332,-2.64763 3.96875,-3.2656 1.07558,-0.52944 1.76594,-0.60526 7.14375,-0.78465 7.78781,-0.25979 9.74802,-0.51685 11.90625,-1.56138 1.55131,-0.7508 3.3658,-2.46906 18.52085,-17.5386 12.04343,-12.58014 24.01186,-24.16572 37.87119,-34.59278 l 0.90209,0.42807 c 2.24718,1.06636 12.69477,9.35885 17.15956,13.61996 4.16112,3.97128 19.83863,19.22673 29.84694,29.04342 4.33239,4.24944 8.38436,8.01879 9.00438,8.37634 2.54307,1.46652 3.22596,1.57139 11.44605,1.75771 6.03876,0.13689 7.87014,0.26067 8.59896,0.58122 1.23319,0.54237 3.74534,2.57676 3.5574,2.88085 -0.082,0.13264 -1.26693,0.24117 -2.63324,0.24117 h -2.48419 l -1.53509,1.27821 c -0.8443,0.70302 -6.34819,6.17875 -12.23087,12.16829 l -10.69579,10.89009 -1.1339,-4.42924 c -1.4184,-5.54057 -2.17678,-7.33477 -4.09918,-9.69802 -0.83885,-1.03123 -11.23813,-11.15534 -22.5541,-23.03829 l -21.59753,-22.67965 c 0,0 -2.69171,1.1589 -25.56972,24.13152 -13.43212,13.48769 -21.27959,21.56132 -21.87272,22.50309 -1.39081,2.20834 -1.72026,3.12076 -3.07119,8.50594 l -1.24116,4.94756 z m -7.97468,-31.34281 c -3.78957,-4.29111 -5.37132,-9.1996 -4.35547,-13.51598 0.43986,-1.86897 2.09586,-5.86333 2.48456,-5.9929 0.12931,-0.0431 1.09601,0.52623 2.14824,1.26518 6.15494,4.32244 7.10324,11.80641 2.37074,18.70978 -0.42397,0.61847 -0.87719,1.12448 -1.00714,1.12448 -0.12995,0 -0.86837,-0.71575 -1.64093,-1.59056 z m -20.13189,-0.68841 c -0.34183,-0.34183 -0.19656,-5.74433 0.1939,-7.21138 0.99689,-3.74543 3.96931,-7.40057 7.28854,-8.96259 1.3986,-0.65818 5.08153,-1.65539 6.11372,-1.65539 0.12996,0 0.23422,0.74414 0.23169,1.65365 -0.0132,4.74374 -2.23191,9.39337 -5.91617,12.39808 -2.36712,1.93051 -7.37005,4.31928 -7.91168,3.77763 z m 39.35271,-10.54129 c -0.38618,-0.38618 -0.64943,-0.95559 -0.64943,-1.40471 0,-0.61999 -0.50777,-1.22641 -2.83471,-3.38547 -1.55908,-1.4466 -6.96611,-6.64117 -12.01562,-11.5435 -10.93841,-10.61958 -10.78895,-10.5284 -13.18126,-8.04173 -0.50149,0.52127 -1.02675,0.94776 -1.16725,0.94776 -0.1405,0 -1.00611,-0.43912 -1.92357,-0.97581 -1.76391,-1.03184 -1.85105,-1.41915 -0.44003,-1.95563 0.74621,-0.2837 0.76223,-0.5495 0.0709,-1.17519 -0.52232,-0.47269 -0.56442,-0.46396 -1.73192,0.35897 l -1.19658,0.84343 -1.24272,-1.17416 -1.24272,-1.17416 0.59339,-0.8026 c 0.32636,-0.44142 0.59338,-0.92648 0.59338,-1.07789 0,-0.38035 -0.7959,-0.32862 -1.57401,0.1023 -0.6025,0.33366 -0.73712,0.28367 -1.91823,-0.71225 -0.69864,-0.5891 -1.27026,-1.19477 -1.27026,-1.34593 0,-0.15116 0.31874,-0.60753 0.70832,-1.01416 0.87856,-0.91702 0.67836,-1.15713 -0.6778,-0.8129 -1.00254,0.25447 -1.08688,0.22468 -1.99388,-0.70417 -0.52088,-0.53343 -0.94706,-1.09129 -0.94706,-1.23969 0,-0.1484 0.35719,-0.5339 0.79376,-0.85666 0.43656,-0.32277 0.79375,-0.77305 0.79375,-1.00063 0,-0.34302 -0.22068,-0.38343 -1.29041,-0.2363 -1.21882,0.16763 -1.32156,0.13371 -1.85208,-0.61133 -0.69415,-0.97484 -0.69438,-1.06093 -0.005,-1.79496 0.70253,-0.74781 0.45849,-1.16112 -0.68559,-1.16112 -0.64932,0 -1.04117,-0.19062 -1.44365,-0.70229 -0.49647,-0.63116 -0.51181,-0.74716 -0.15149,-1.14531 0.61748,-0.68232 0.50463,-1.3274 -0.23223,-1.3274 -0.83563,0 -1.08876,-0.72591 -0.49771,-1.42732 0.78086,-0.92667 0.96563,-0.95774 1.67183,-0.28116 0.84236,0.80703 1.39498,0.82138 2.11173,0.0548 l 0.55664,-0.59532 0.74163,0.90648 c 0.71011,0.86793 0.77666,0.89196 1.56558,0.56518 1.05613,-0.43746 1.6272,-0.21109 1.6272,0.64501 0,0.86588 0.6661,1.12606 1.53427,0.59929 0.64379,-0.39063 0.73085,-0.36644 1.94609,0.54083 l 1.27216,0.94976 -0.54667,0.92654 c -0.51236,0.86839 -0.51819,0.94736 -0.093,1.2583 0.37576,0.27475 0.62487,0.23326 1.44981,-0.24152 l 0.99609,-0.57328 1.4831,1.26706 c 0.81571,0.69689 1.48311,1.33948 1.48311,1.42799 0,0.0885 -0.26118,0.43894 -0.58041,0.77874 -0.52957,0.56371 -0.5437,0.65452 -0.16135,1.03688 0.36328,0.36328 0.54721,0.37271 1.3819,0.0709 l 0.96285,-0.34818 1.77819,1.79138 1.7782,1.79138 -0.9922,0.84426 c -1.11204,0.94624 -1.22707,1.36139 -0.48695,1.7575 0.36691,0.19636 0.77378,0.15818 1.4861,-0.13944 0.53947,-0.22541 1.13526,-0.35058 1.32396,-0.27817 0.20897,0.0802 0.40967,0.83653 0.51338,1.93468 0.0937,0.99167 0.31231,2.16022 0.48591,2.59678 0.35142,0.88376 9.42358,9.86358 18.24818,18.06245 4.31322,4.00738 5.92859,5.35317 6.42546,5.35317 1.43637,0 2.67653,1.57044 2.21832,2.8091 -0.28742,0.77696 -1.51976,1.68882 -2.28237,1.68882 -0.35079,0 -0.93005,-0.29224 -1.28724,-0.64943 z m -35.70672,-8.39032 c -2.19316,-0.29828 -4.61028,-1.56013 -6.65828,-3.47592 l -1.72951,-1.61788 0.62202,-0.51208 c 1.13193,-0.93188 4.3631,-2.30933 6.08735,-2.59505 3.07128,-0.50893 6.36118,0.76908 9.21724,3.58058 0.73947,0.72793 1.30912,1.50963 1.26589,1.73712 -0.11729,0.61725 -2.4648,2.0863 -4.00942,2.50905 -1.9591,0.53619 -3.00434,0.61775 -4.79529,0.37418 z m 53.45868,-26.27889 c -17.17115,-17.38331 -17.62225,-17.78497 -21.71193,-19.33217 -1.98364,-0.75046 -3.95263,-0.9545 -13.39231,-1.38787 l -4.66431,-0.21413 -1.52614,-0.91162 c -1.88342,-1.12501 -6.33705,-5.43598 -7.62353,-7.3793 -0.52454,-0.79234 -0.9246,-1.46969 -0.88906,-1.50524 0.0355,-0.0355 7.4757,0.34193 16.53368,0.83883 l 16.46905,0.90344 2.96176,-3.05733 c 3.79899,-3.92158 3.82688,-3.96143 3.23195,-4.61883 -0.25533,-0.28213 -0.58176,-0.51297 -0.72541,-0.51297 -0.14364,0 -1.67614,1.37403 -3.40554,3.05339 -2.92944,2.84468 -3.20267,3.04401 -3.9973,2.91616 -0.46911,-0.0755 -3.47216,-0.26865 -6.67344,-0.42928 -3.20128,-0.16063 -5.85235,-0.3239 -5.89126,-0.36281 -0.0852,-0.0852 2.62167,-2.70215 8.11381,-7.8444 7.47236,-6.99631 13.08007,-12.148518 13.14831,-12.08028 0.0371,0.03713 0.55658,2.89443 1.15433,6.34956 1.42684,8.2474 2.12298,10.44659 4.33326,13.68933 0.44635,0.65484 7.53272,7.97719 15.7475,16.27187 15.49369,15.6444 41.76775,40.07235 41.60839,40.5804 -19.13192,-17.66822 -29.93575,-12.42656 -12.91519,9.59253 -0.12032,0 -31.04807,-25.61153 -39.88662,-34.55928 z m 19.77673,19.19854 17.36897,-15.85766 c 1.10656,-1.01028 8.84505,-8.90945 17.42309,-17.32843 16.02595,-15.72879 17.98863,-17.78119 19.70868,-20.60981 1.33699,-2.19865 1.87249,-4.04726 3.11014,-10.73646 0.57425,-3.1037 1.13481,-5.99315 1.24567,-6.421007 0.19768,-0.762842 0.37588,-0.596994 9.19648,8.558897 8.87407,9.21138 11.1744,11.73264 10.92872,11.97832 -0.0689,0.0689 -3.27064,-0.007 -7.11498,-0.16938 l -6.98968,-0.29467 -1.05833,-1.02271 c -0.58209,-0.56248 -1.71318,-1.8524 -2.51355,-2.86647 -1.51466,-1.91909 -1.84112,-2.12487 -2.36657,-1.49174 -0.40999,0.49401 -0.18264,0.90334 2.47719,4.45987 l 2.09499,2.80126 1.60918,0.15189 c 0.88504,0.0835 5.06198,0.32701 9.2821,0.54106 9.39687,0.47661 21.12462,1.23134 21.28464,1.36975 0.18596,0.16084 -3.66775,3.98084 -5.27735,5.23117 -3.07951,2.39215 -2.90383,2.35238 -11.24479,2.54571 l -7.40833,0.17171 -2.27996,0.84378 c -4.28709,1.58661 -5.06371,2.25652 -22.44252,19.35876 -8.86196,8.72094 -37.75975,33.00967 -37.80799,33.00967 -14.82675,0 44.25133,-25.53858 -9.2258,-14.22351 z m -53.62116,-7.99857 c -1.34588,-2.05407 -1.58686,-7.42086 -0.45945,-10.23207 1.08441,-2.70398 3.58922,-5.7326 6.3913,-7.72785 l 0.793,-0.56467 1.03327,2.20548 c 1.8994,4.05426 2.0052,7.228 0.35697,10.7091 -1.26777,2.67758 -4.59259,5.61477 -6.87177,6.0706 -0.68616,0.13723 -0.90464,0.0563 -1.24332,-0.46059 z m 142.31075,-41.77654 c -4.07458,-0.26285 -7.4381,-0.4863 -7.47448,-0.49656 -0.0364,-0.0102 -0.0661,-0.25263 -0.0661,-0.53863 0,-0.71921 -2.79005,-3.87073 -11.48574,-12.97376 -11.0196,-11.535803 -10.05628,-10.395405 -9.57211,-11.331687 0.85594,-1.6552 3.63141,-4.806057 5.82839,-6.616694 3.878,-3.196044 7.20764,-4.914658 11.95017,-6.168168 2.13071,-0.563174 2.90371,-0.621809 8.17409,-0.620041 3.64316,0.0012 6.0001,0.107523 6.3,0.284139 0.41864,0.246542 -0.40018,1.117985 -6.48229,6.898818 -3.82881,3.639147 -7.52701,7.128088 -8.21824,7.753204 -0.69122,0.625115 -1.25677,1.245816 -1.25677,1.379334 0,0.133519 1.04893,1.338745 2.33096,2.678285 1.28203,1.33953 3.80301,4.04286 5.60219,6.00739 1.79918,1.96454 3.37425,3.61311 3.50015,3.6635 0.12591,0.0504 2.33766,-1.97897 4.915,-4.50968 8.97766,-8.815236 10.69698,-10.361878 10.97217,-9.870148 0.13601,0.243046 0.24536,2.247634 0.243,4.454638 -0.007,6.20915 -1.02155,10.68903 -3.51646,15.52211 -1.75054,3.39113 -2.98339,5.03625 -3.74281,4.99447 -0.326,-0.0179 -3.92649,-0.24767 -8.00107,-0.51052 z m -142.87501,-1.49873 c -0.94584,-0.10275 -14.23875,-0.85932 -15.97803,-0.90939 l -1.69053,-0.0487 -0.76873,-1.69539 c -2.37705,-5.24247 -3.26158,-9.85703 -3.04871,-15.90504 0.0801,-2.276007 0.22962,-4.410844 0.33226,-4.744084 0.2371,-0.769799 -0.40377,-1.355826 8.10046,7.407234 l 6.85724,7.06593 6.06306,-5.84822 6.06306,-5.848221 -0.47587,-0.604974 c -0.26173,-0.332736 -3.73912,-4.074537 -7.72754,-8.315114 -3.98841,-4.240577 -7.28821,-7.810877 -7.33288,-7.934 -0.13053,-0.359747 2.75569,-0.656722 5.91031,-0.608138 9.22318,0.142046 16.93479,3.330228 23.03935,9.525083 1.42088,1.441899 2.48137,2.816376 3.1399,4.069552 l 0.99437,1.892292 -1.15552,1.115937 c -0.63554,0.613765 -3.47297,3.308213 -6.30539,5.987653 -7.38419,6.98536 -15.12707,14.59531 -15.32119,15.05817 -0.0915,0.21828 -0.40457,0.371 -0.69561,0.33939 z"
         id="path1" /><path
         style="fill:#e2e2e2;fill-opacity:1;stroke-width:0.134025"
         d="m -246.43549,196.24464 c 14.80377,-14.31096 16.57325,-15.98729 16.78675,-15.90302 0.18445,0.0728 2.85297,3.04356 3.05492,3.40091 0.12261,0.21698 -1.45387,1.7988 -18.58569,18.64872 l -9.00056,8.85244 0.0356,-0.0732 -3.65014,-0.37478 0.39492,-3.62247 z"
         id="path3" /><path
         style="fill:#e2e2e2;fill-opacity:1;stroke-width:0.134025"
         d="m -181.89354,144.12984 c -14.80377,14.31096 -16.57326,15.98729 -16.78675,15.90302 -0.18445,-0.0728 -2.85297,-3.04356 -3.05492,-3.40091 -0.12263,-0.21698 1.45386,-1.7988 18.58569,-18.64872 l 9.00055,-8.85244 -0.0356,0.0732 3.65015,0.37478 -0.39493,3.62247 z"
         id="path3-6" /><path
         style="fill:#e2e2e2;fill-opacity:1;stroke-width:0.134025"
         d="m -185.23051,199.5574 c -14.31097,-14.80377 -15.98729,-16.57326 -15.90303,-16.78675 0.0728,-0.18445 3.04357,-2.85297 3.40092,-3.05492 0.21697,-0.12263 1.7988,1.45386 18.64872,18.58569 l 8.85244,9.00055 -0.0732,-0.0356 -0.37477,3.65015 -3.62247,-0.39493 z"
         id="path3-6-3" /><path
         style="fill:#e2e2e2;fill-opacity:1;stroke-width:0.134025"
         d="m -238.27282,141.92831 c 14.31096,14.80377 15.98729,16.57326 15.90302,16.78675 -0.0728,0.18445 -3.04356,2.85297 -3.40091,3.05492 -0.21698,0.12263 -1.7988,-1.45386 -18.64872,-18.58569 l -8.85244,-9.00055 0.0732,0.0356 0.37477,-3.65015 3.62248,0.39493 z"
         id="path3-6-3-2" /><path
         d="m -160.62344,193.68262 c -1.137,-0.44002 -3.57454,-2.26394 -3.54603,-2.65335 0.0187,-0.25503 2.94632,-1.88934 3.92682,-2.19209 0.96303,-0.29734 2.85006,-0.18765 3.79562,0.22063 0.39984,0.17265 1.13869,0.84151 1.64191,1.48634 0.72286,0.92628 0.98715,1.10856 1.25889,0.86824 0.18917,-0.1673 0.60456,-0.28821 0.92309,-0.26866 0.62444,0.0383 0.92766,-0.39986 0.99097,-1.43199 0.055,-0.89596 -0.45633,-1.94632 -1.49879,-3.07892 -1.02674,-1.11555 -2.27789,-1.49131 -4.15063,-1.2466 -0.8974,0.11727 -1.72814,0.0403 -2.74822,-0.25456 -1.21333,-0.35078 -1.68655,-0.67653 -2.78168,-1.91482 -0.7258,-0.82068 -1.30913,-1.66351 -1.29628,-1.87297 0.0292,-0.47643 2.32354,-1.31953 3.91626,-1.43912 1.83436,-0.13773 3.57212,0.97315 5.66483,3.62127 1.87157,2.36833 2.16068,2.30407 1.4516,-0.32264 -0.24359,-0.90238 -0.43195,-1.81921 -0.41856,-2.0374 0.0135,-0.22075 -0.59117,-0.73551 -1.36326,-1.16045 -2.69452,-1.48307 -3.65201,-3.50716 -3.42322,-7.23658 l 0.0958,-1.56081 1.58642,0.683 c 3.68827,1.58792 5.36735,4.74772 4.20404,7.91134 -0.32722,0.8899 -0.31352,1.09871 0.11547,1.76087 0.26769,0.41317 0.51467,1.30243 0.54885,1.97613 0.0342,0.6737 0.34733,1.94541 0.69591,2.82604 l 0.63375,1.60114 0.58672,-1.11484 c 0.99925,-1.89868 1.06812,-2.71919 0.32171,-3.83313 -1.34176,-2.00254 -0.81398,-4.45161 1.38418,-6.42292 1.05565,-0.9467 3.29603,-2.46808 3.60644,-2.44904 0.22974,0.0141 0.64568,2.49841 0.59838,3.57401 -0.106,2.41047 -1.39863,4.5369 -3.53078,5.80831 -0.47831,0.28521 -0.62701,0.71768 -0.88232,2.56594 l -0.30706,2.22291 0.59831,-0.52914 c 0.32908,-0.29103 0.82331,-1.08551 1.0983,-1.76549 0.42108,-1.04126 0.69333,-1.31982 1.72529,-1.76534 1.16317,-0.50217 5.29431,-1.25428 5.51553,-1.00416 0.1838,0.20783 -0.91216,2.63251 -1.6127,3.56791 -1.36847,1.82727 -3.1297,2.48508 -4.83244,1.80489 -0.89132,-0.35605 -1.01445,-0.3348 -1.9664,0.33947 -1.46605,1.0384 -2.17321,2.07202 -2.63994,3.85861 -0.22611,0.86557 -0.5243,1.63446 -0.66264,1.70865 -0.13833,0.0742 -0.46674,-0.35966 -0.72979,-0.96412 -0.40064,-0.9206 -0.60891,-1.10705 -1.28281,-1.14839 -0.44857,-0.0275 -1.20042,0.21592 -1.69939,0.55025 -1.97705,1.3247 -3.43992,1.51355 -5.51213,0.71161 z m 5.97158,-8.76018 c -0.0808,-0.15075 -0.26585,-0.2814 -0.41112,-0.29031 -0.14524,-0.009 -0.19792,0.10715 -0.11707,0.2579 0.0808,0.15076 0.26586,0.28139 0.41111,0.2903 0.14524,0.009 0.19794,-0.10714 0.11708,-0.25789 z m -21.64843,-5.95495 c -1.1654,-1.31773 -0.84681,-1.91073 2.63206,-4.8991 8.67151,-7.44893 20.47941,-18.07872 20.65975,-18.03787 2.8493,0.64551 0.69197,2.11968 -1.8177,1.75734 -0.4513,-0.0652 6.25532,-5.65001 6.90212,-6.79808 0.32279,-0.57295 0.61662,-1.38993 0.65298,-1.8155 0.14996,-1.75523 0.45283,-1.72875 1.26781,0.11084 1.21664,2.74609 2.71996,4.44941 5.11107,5.79098 1.12755,0.63263 1.81741,1.05387 1.53305,0.9361 -0.28436,-0.11777 -1.59763,-0.33636 -2.91834,-0.48575 -2.19682,-0.2485 -2.54259,-0.2184 -4.06035,0.3539 -0.20789,0.15163 -15.79354,13.27913 -16.81759,14.20281 -9.97363,8.99597 -10.799,9.6789 -11.63575,9.62757 -0.6041,-0.0371 -1.10096,-0.28177 -1.50908,-0.74323 z m 38.05491,-23.10548 c -0.0632,-0.20076 -1.06756,-1.02339 -2.23184,-1.82809 -1.16428,-0.8047 -2.3543,-1.75589 -2.64448,-2.11377 -0.84693,-1.04452 -1.91096,-3.2564 -2.43976,-5.07177 l -0.49027,-1.68304 3.95038,-3.67138 c 2.17271,-2.01926 4.83474,-4.44203 5.91562,-5.38391 l 1.96524,-1.7125 1.92147,1.6398 c 2.71208,2.31452 6.75799,6.29913 8.45533,8.32721 l 1.44126,1.72208 -5.3079,3.53724 c -5.06902,3.37803 -8.1032,5.31889 -9.69085,6.19892 -0.58927,0.32663 -0.75129,0.33415 -0.84421,0.0392 z"
         style="fill:#e2e2e2;fill-opacity:1"
         id="path1-7" /><path
         d="m -213.91401,135.77521 c 0.10219,-0.34394 0.25469,-1.36593 0.33888,-2.27111 0.11892,-1.27844 0.0552,-1.79516 -0.28548,-2.3151 -0.67751,-1.03401 -1.64242,-0.86787 -4.03044,0.69398 -2.41152,1.57721 -3.95214,2.32681 -4.79915,2.33504 -0.5768,0.006 -0.56428,-0.045 0.3528,-1.42622 0.52295,-0.78761 1.01448,-1.90674 1.09231,-2.48695 0.12302,-0.91723 0.054,-1.11225 -0.52879,-1.49411 -0.64317,-0.42142 -0.79332,-0.39664 -3.71396,0.61315 -3.20268,1.1073 -5.99705,1.63801 -5.99705,1.13897 0,-0.1553 0.52675,-0.64477 1.17056,-1.08773 0.64381,-0.44295 1.41772,-1.11957 1.71979,-1.5036 0.67649,-0.86001 0.72066,-2.10728 0.0862,-2.4347 -0.25466,-0.13143 -1.80238,-0.3206 -3.43938,-0.42039 -2.82097,-0.17196 -5.00709,-0.62141 -5.88718,-1.21036 -0.52428,-0.35084 -0.0423,-0.67805 1.31961,-0.89582 1.28028,-0.20473 2.38456,-1.08262 2.38456,-1.89571 0,-0.75636 -0.61504,-1.11464 -3.90654,-2.27574 -2.45013,-0.8643 -4.92066,-2.32633 -5.37938,-3.18346 -0.26785,-0.50048 -0.20027,-0.5106 2.2221,-0.33279 2.30231,0.169 2.54099,0.14076 3.04166,-0.35991 1.04684,-1.04684 0.39233,-2.08859 -2.57248,-4.09448 -1.08044,-0.73099 -2.45214,-1.81743 -3.04822,-2.41431 -1.05535,-1.05677 -2.18164,-2.97498 -1.90766,-3.24896 0.075,-0.075 0.90916,0.17279 1.85368,0.55065 1.98044,0.79231 2.73119,0.85045 3.55255,0.27515 0.93218,-0.65292 0.75929,-1.7134 -0.53644,-3.29058 -2.15789,-2.62659 -2.56559,-3.240638 -3.09999,-4.668948 -0.56001,-1.496759 -0.70141,-2.741092 -0.3115,-2.741092 0.1246,0 0.74967,0.398792 1.38906,0.886204 1.3625,1.038644 2.69457,1.759629 3.25106,1.759629 0.54412,0 1.21875,-1.03226 1.21875,-1.86483 0,-0.378814 -0.31424,-1.572713 -0.6983,-2.653107 -0.98576,-2.772954 -1.22704,-7.791866 -0.34849,-7.248891 0.14333,0.08859 0.51047,0.659002 0.81585,1.267592 0.83363,1.661316 1.52147,2.297153 2.48502,2.297153 1.45285,0 1.64624,-0.502378 1.78237,-4.630209 0.11351,-3.441877 0.47659,-5.423961 0.99358,-5.423961 0.11866,0 0.47305,0.803675 0.78752,1.78594 0.70628,2.206107 1.18653,2.976563 1.85537,2.976563 0.77194,0 1.2342,-0.921786 1.82587,-3.640913 0.54724,-2.51492 1.33271,-4.62086 1.84056,-4.93472 0.30483,-0.1884 0.43427,0.2337 0.69925,2.28038 0.21365,1.65016 0.86936,2.464488 1.79698,2.23167 0.5283,-0.132595 0.9943,-0.71089 1.93678,-2.40346 1.39339,-2.50236 2.96414,-4.67855 3.50467,-4.85554 0.28268,-0.0926 0.31989,0.11571 0.17447,0.97648 -0.36072,2.13507 -0.25671,3.46474 0.31582,4.03726 0.50827,0.50827 0.58117,0.51423 1.36052,0.11121 0.45291,-0.2342 1.74535,-1.25498 2.8721,-2.26838 1.9938,-1.79323 4.12961,-3.18014 4.43187,-2.87787 0.0823,0.0823 -0.10187,0.71811 -0.40922,1.41294 -0.68031,1.53794 -0.71635,2.90988 -0.0945,3.59702 0.66961,0.7399 1.14754,0.65279 3.74161,-0.68202 2.45917,-1.2654 4.86724,-2.24447 5.52035,-2.24447 0.26029,0 0.0368,0.45075 -0.66151,1.33418 -1.27048,1.60728 -1.58693,2.87814 -0.95632,3.840578 0.64454,0.983686 1.03899,1.045056 3.58276,0.55742 2.51449,-0.482021 6.35337,-0.593237 6.35337,-0.184062 0,0.141049 -0.68408,0.694051 -1.52017,1.228892 -1.85886,1.1891 -2.22152,1.63055 -2.04016,2.483405 0.27096,1.274139 1.17095,1.753054 3.65291,1.943833 2.4701,0.189867 4.25143,0.691444 5.63358,1.586274 1.09853,0.711202 1.14407,1.232393 0.10769,1.232393 -1.36593,0 -3.49169,0.568253 -3.99005,1.066608 -0.53695,0.536953 -0.44448,1.408171 0.23237,2.189436 0.22773,0.262855 1.50265,1.000391 2.83314,1.638969 1.86966,0.897345 2.72864,1.499742 3.78197,2.652257 1.20815,1.321905 1.69696,2.242314 1.19085,2.242314 -0.0946,0 -1.09772,-0.187566 -2.2291,-0.416814 -2.44785,-0.495999 -3.15512,-0.282485 -3.15512,0.952488 0,0.560579 0.35543,1.175599 1.25677,2.174659 2.01946,2.23838 3.14026,3.6981 3.70879,4.83029 0.58869,1.17234 1.15997,3.04271 0.92936,3.04271 -0.0813,0 -0.75633,-0.37484 -1.50003,-0.83299 -0.7437,-0.45814 -1.84189,-0.8885 -2.44042,-0.95636 -0.91813,-0.1041 -1.15593,-0.0267 -1.52135,0.49498 -0.23821,0.3401 -0.43312,0.7784 -0.43312,0.974 0,0.1956 0.59984,1.7078 1.33298,3.36044 0.76669,1.72826 1.40382,3.60285 1.49971,4.41252 l 0.16672,1.40771 -1.36018,-1.22292 c -1.47766,-1.32854 -2.34963,-1.64094 -3.28554,-1.17711 -0.78735,0.39021 -0.87871,1.41399 -0.35322,3.95807 0.4172,2.01979 0.55843,5.48665 0.23661,5.80847 -0.0965,0.0965 -0.69781,-0.60329 -1.33629,-1.55504 -1.30691,-1.94814 -2.18639,-2.47455 -3.1163,-1.86524 -0.50521,0.33102 -0.61403,0.71322 -0.77413,2.719 -0.10247,1.28362 -0.31569,2.86963 -0.47384,3.52447 -0.37696,1.56089 -1.25503,3.29919 -1.51945,3.00804 -0.11485,-0.12645 -0.45818,-1.06335 -0.76296,-2.082 -0.67914,-2.26982 -1.19655,-3.04271 -2.03697,-3.04271 -0.84139,0 -1.26811,0.71629 -1.96556,3.29933 -0.59001,2.1851 -1.60688,4.32529 -2.3932,5.0369 -0.4228,0.38262 -0.4627,0.29507 -0.59036,-1.29527 -0.17055,-2.12471 -0.89257,-3.70043 -1.75126,-3.82196 -0.7437,-0.10524 -1.87972,0.89626 -2.80227,2.47045 -0.67023,1.14366 -2.81156,3.27984 -3.83887,3.82964 -0.5798,0.3103 -0.60625,0.29224 -0.43183,-0.29479 z m 2.11095,-9.45218 c 1.40414,-1.21873 1.45776,-3.45177 0.11441,-4.76514 l -0.78356,-0.76608 1.40772,-0.33317 c 5.54222,-1.31168 10.3542,-5.81137 11.87645,-11.10564 0.18828,-0.65485 0.36946,-1.22931 0.40264,-1.27659 0.0332,-0.0473 0.54541,0.23507 1.13833,0.62744 0.952,0.63001 1.26976,0.69954 2.71796,0.59479 1.51007,-0.10923 1.70945,-0.19906 2.51811,-1.13455 0.74701,-0.86416 0.8782,-1.21755 0.8782,-2.36563 0,-1.63631 -0.83715,-3.03383 -2.20664,-3.68369 -1.20815,-0.5733 -2.08937,-0.54845 -3.34961,0.0945 -0.57049,0.29104 -1.14447,0.52917 -1.27552,0.52917 -0.13105,0 -0.31112,-0.62508 -0.40016,-1.38907 -0.20945,-1.797087 -1.90951,-5.217604 -3.4769,-6.995495 -1.96723,-2.231428 -5.01926,-4.074292 -8.02389,-4.844957 -1.00328,-0.257334 -1.11646,-0.360674 -0.95653,-0.873364 0.19285,-0.618209 0.57839,-0.967686 1.07485,-0.974318 0.16683,-0.0022 0.686,-0.439898 1.15373,-0.9726 0.78119,-0.889722 0.84074,-1.085004 0.73174,-2.399438 -0.0952,-1.148367 -0.27567,-1.587894 -0.91385,-2.22607 -1.52573,-1.525723 -3.98723,-1.215295 -5.12211,0.645964 -0.85633,1.404438 -0.58637,3.096179 0.71114,4.456517 0.42089,0.44127 0.63421,0.929105 0.57849,1.322917 -0.0819,0.578768 -0.24206,0.636626 -2.21529,0.800364 -3.80413,0.315665 -6.62946,1.689086 -9.47926,4.60796 -1.67785,1.718506 -3.44485,4.897351 -3.94403,7.09534 l -0.33574,1.47829 -0.94002,-0.66884 c -1.29101,-0.91856 -2.57407,-1.08785 -3.80782,-0.5024 -2.40123,1.13946 -2.68473,4.46171 -0.52566,6.16004 1.00153,0.7878 2.00339,0.91841 3.32673,0.4337 1.8403,-0.67407 1.85147,-0.66882 2.34224,1.09987 0.92278,3.32555 2.82442,6.1748 5.56868,8.34358 1.9032,1.5041 3.37757,2.16364 7.38182,3.30218 0.28924,0.0822 0.25302,0.23418 -0.16538,0.69371 -1.20435,1.32276 -1.4557,2.76496 -0.72736,4.17342 0.22202,0.42934 0.43038,0.78241 0.46302,0.7846 0.0327,0.002 0.5356,0.17693 1.11769,0.38832 1.18594,0.43068 2.39723,0.29374 3.14537,-0.35561 z"
         style="fill:#e2e2e2;fill-opacity:1"
         id="path1-2" /><path
         d="m -194.5933,263.0123 c -0.21828,-0.0462 -0.82966,-0.15427 -1.35862,-0.24017 -0.69544,-0.11294 -0.95185,-0.28266 -0.92604,-0.61293 0.0245,-0.3129 -0.19344,-0.48311 -0.6919,-0.54047 -0.40018,-0.046 -0.7276,0.0433 -0.7276,0.19844 0,0.15519 -0.23813,0.28216 -0.52917,0.28216 -0.42927,0 -0.52917,-0.17639 -0.52917,-0.93435 0,-1.09052 -0.57621,-1.4612 -1.28055,-0.82378 -0.43095,0.38999 -0.54794,0.36908 -1.51151,-0.27017 -0.57441,-0.38109 -1.30558,-0.9285 -1.62479,-1.21647 -0.51931,-0.46849 -0.54136,-0.58313 -0.20967,-1.08937 0.56582,-0.86354 0.11271,-1.42037 -0.81269,-0.99873 -0.39303,0.17908 -0.74178,0.29137 -0.77503,0.24954 -0.0332,-0.0418 -0.43679,-0.603 -0.89679,-1.24704 l -0.83635,-1.17099 0.6701,-0.69944 c 0.73273,-0.7648 0.64536,-1.05962 -0.314,-1.05962 -0.73359,0 -1.03443,-0.63293 -1.50918,-3.175 -0.36475,-1.95313 -0.505,-2.03524 -2.95391,-1.72926 -1.34016,0.16744 -1.38087,0.19785 -1.53797,1.14906 -0.0888,0.53739 -0.28707,1.42356 -0.44071,1.96926 l -0.27934,0.99219 h -4.57241 -4.5724 l 0.33956,-2.18281 c 0.18675,-1.20055 0.40148,-2.51024 0.47718,-2.91042 l 0.13763,-0.7276 h -4.08915 -4.08916 l -1.77442,-1.60806 c -2.17334,-1.96956 -3.7313,-2.78541 -6.01604,-3.1504 -1.64022,-0.26203 -4.01624,-0.0863 -5.21392,0.38553 -0.43402,0.171 -1.04955,-1.72214 -2.57839,-7.9302 -0.87215,-3.5415 -0.92599,-4.19952 -0.38308,-4.68238 1.0738,-0.95503 2.38634,-1.06838 13.89627,-1.20009 10.17546,-0.11644 11.31515,-0.17258 11.43015,-0.56302 0.25211,-0.85599 2.23942,-11.04628 2.41943,-12.40607 l 0.18388,-1.38906 h -1.4893 c -1.8043,0 -1.89028,-0.2948 -0.48595,-1.6661 l 1.00335,-0.97974 h 13.76283 13.76282 l 0.42305,1.32292 0.42305,1.32292 h -1.56317 c -1.31502,0 -1.56207,0.0735 -1.55619,0.46302 0.009,0.57283 2.01798,9.58763 2.17115,9.7408 0.061,0.061 1.16677,0.29506 2.45724,0.5201 2.95656,0.51558 4.37825,1.14365 5.97988,2.64179 0.69758,0.6525 1.51155,1.18637 1.80882,1.18637 0.37079,0 0.54051,0.17255 0.54051,0.54952 0,0.30223 0.35718,0.90671 0.79375,1.34327 0.54244,0.54245 0.79375,1.05488 0.79375,1.61855 v 0.8248 l -0.66004,-0.89463 c -2.30822,-3.12862 -6.80796,-5.02901 -11.90767,-5.02901 -6.68382,0 -12.27214,3.2014 -16.85764,9.65729 -0.99092,1.39511 -2.32466,3.89478 -2.32466,4.35683 0,0.15679 0.64884,0.27204 1.52135,0.27024 l 1.52136,-0.003 0.92605,-2.00106 c 0.86669,-1.87281 0.97342,-1.99413 1.66529,-1.89306 0.93402,0.13646 1.13849,-0.18475 0.62069,-0.97502 -0.38359,-0.58543 -0.35551,-0.67717 0.52077,-1.7009 0.50943,-0.59515 1.99095,-1.79427 3.29226,-2.66471 2.29531,-1.5353 3.84959,-2.13147 4.50346,-1.72735 0.18994,0.11739 0.51048,-0.0585 0.7958,-0.4368 0.45282,-0.60032 0.62692,-0.63305 3.33713,-0.62728 3.19371,0.007 4.98049,0.40245 5.17492,1.14595 0.0963,0.36815 0.31428,0.45905 0.89618,0.37364 0.54303,-0.0797 0.91529,0.0488 1.26702,0.43751 0.27394,0.3027 0.63344,0.55036 0.79889,0.55036 0.42274,0 4.11989,3.84885 5.12889,5.33934 0.98246,1.45127 1.01686,1.6884 0.30911,2.1304 -0.79109,0.49404 -0.65111,0.99693 0.27752,0.99693 0.69259,0 0.87888,0.15904 1.31711,1.12448 0.61558,1.35615 0.66149,2.39917 0.12516,2.84427 -0.57804,0.47974 -0.48571,1.15845 0.19844,1.45861 0.47768,0.20957 0.61132,0.51097 0.67627,1.52527 0.0785,1.22584 0.0525,1.27598 -0.8599,1.65719 -1.03393,0.43201 -1.21463,1.01461 -0.44281,1.42768 0.8019,0.42916 0.83539,0.94179 0.18612,2.84834 -0.61126,1.79493 -0.61436,1.79838 -1.54315,1.72483 -1.10187,-0.0873 -1.51622,0.54009 -0.84591,1.28077 0.74396,0.82207 0.34465,1.5971 -1.75742,3.41098 -1.10392,0.95257 -2.32039,1.8988 -2.70328,2.10274 -0.63669,0.3391 -0.73665,0.32077 -1.17019,-0.21463 -0.65996,-0.81502 -1.50293,-0.49511 -1.30486,0.49519 0.13989,0.69947 0.11516,0.71254 -2.18018,1.15255 -2.07017,0.39685 -4.74176,0.53376 -5.84791,0.2997 z m 6.95473,-5.397 c 4.29496,-2.12806 7.24504,-7.45798 6.66965,-12.05009 -0.5939,-4.73972 -2.94874,-8.24608 -6.72888,-10.01927 -1.47699,-0.69283 -2.11131,-0.82831 -4.24967,-0.90769 -2.85038,-0.1058 -4.65786,0.37108 -6.92808,1.82788 -6.20487,3.98165 -7.00831,13.24793 -1.61779,18.65828 2.67983,2.68967 4.84343,3.56435 8.54587,3.45481 2.23946,-0.0662 2.70931,-0.17136 4.3089,-0.96392 z m -6.19522,-1.08421 c -3.01697,-0.49164 -5.62591,-2.48904 -7.13528,-5.46274 -0.85505,-1.68457 -0.90028,-1.91396 -0.90028,-4.56562 0,-2.47537 0.0804,-2.96349 0.7091,-4.30485 0.93442,-1.99364 2.84485,-3.9985 4.65327,-4.88328 2.09697,-1.02594 5.1329,-1.16389 7.33568,-0.33331 1.99431,0.75197 4.21943,2.90683 5.30967,5.14199 0.70557,1.44655 0.77447,1.83417 0.77602,4.36563 0.002,2.5606 -0.0624,2.91278 -0.81709,4.49792 -1.86743,3.92248 -5.938,6.19498 -9.93109,5.54426 z m 4.39986,-6.27631 c 0.58219,-0.40171 1.33435,-1.2643 1.67186,-1.91733 1.69875,-3.28683 -1.18086,-7.41445 -4.91779,-7.04913 -4.33766,0.42404 -6.19818,5.04189 -3.28429,8.15166 1.81537,1.93742 4.43033,2.26369 6.53022,0.8148 z m -4.30505,-1.5617 c -0.53921,-0.21695 -1.11891,-1.56827 -1.11891,-2.60826 0,-1.3243 1.17386,-2.50633 2.48901,-2.50633 2.26505,0 3.49867,3.03221 1.88864,4.64224 -0.49794,0.49794 -0.91454,0.64456 -1.78594,0.62854 -0.62507,-0.0115 -1.28784,-0.0818 -1.4728,-0.15619 z m -20.85869,1.34607 c 0.0883,-0.23019 0.1606,-0.76597 0.1606,-1.19063 v -0.77211 h -3.27643 c -3.17412,0 -3.28141,0.0186 -3.43597,0.59531 -0.0878,0.32742 -0.16116,0.86321 -0.16315,1.19063 -0.004,0.58553 0.0503,0.59531 3.27538,0.59531 2.74592,0 3.30509,-0.068 3.43957,-0.41851 z m 6.05625,-5.37192 c 0.36823,-0.36713 -0.11407,-1.08874 -0.72765,-1.08874 -0.32792,0 -1.13207,-0.0734 -1.78702,-0.16321 -1.14967,-0.15758 -1.1958,-0.13707 -1.33551,0.5938 -0.0796,0.41636 -0.08,0.86178 -8.3e-4,0.98983 0.16597,0.26853 3.54054,-0.0221 3.85101,-0.33168 z m -5.72552,-4.72676 c 0.19842,-0.25466 1.2124,-1.89177 2.2533,-3.63802 1.0409,-1.74625 2.36422,-3.87372 2.94072,-4.72772 l 1.04818,-1.55271 -0.73531,-0.58631 c -0.42886,-0.34196 -0.65587,-0.71481 -0.54471,-0.89468 0.32917,-0.5326 -0.85834,-0.34901 -1.42814,0.2208 -0.76685,0.76685 -0.92642,0.649 -0.26309,-0.19429 l 0.56907,-0.72346 -0.65122,-0.53332 c -0.35817,-0.29332 -1.0521,-0.84699 -1.54206,-1.23037 -0.48995,-0.38339 -0.79384,-0.79787 -0.67531,-0.92108 0.22077,-0.22946 0.58424,-0.0505 3.06211,1.50763 l 1.42554,0.89642 0.39267,-0.59139 c 0.44172,-0.66525 1.42918,-0.78065 1.89342,-0.22128 0.24049,0.28977 0.16138,0.58495 -0.36448,1.35984 -1.23906,1.82586 -1.0176,1.77094 2.83933,-0.70407 1.7694,-1.13544 5.16981,-2.42577 7.61734,-2.89049 0.93719,-0.17795 1.77546,-0.39676 1.86282,-0.48624 0.0874,-0.0895 -0.27848,-2.36535 -0.81297,-5.05749 l -0.97182,-4.89479 -9.44833,-0.23383 c -5.19659,-0.1286 -9.52267,-0.1595 -9.61352,-0.0686 -0.27704,0.27704 -2.6675,12.67359 -3.52135,18.26124 -0.6382,4.17636 -0.73733,5.3386 -0.48163,5.6467 0.3645,0.4392 4.17808,2.72058 4.54775,2.72058 0.13252,0 0.40328,-0.20836 0.6017,-0.46302 z m -26.19708,-6.54509 -0.17063,-1.45187 9.4418,-0.0695 9.44181,-0.0695 0.19452,-0.7276 0.19452,-0.7276 h -12.16356 c -6.68997,0 -12.1103,0.0893 -12.04519,0.19843 0.0651,0.10914 0.32221,1.12118 0.57134,2.24896 l 0.45296,2.05052 h 2.12654 2.12653 z m -0.0345,28.5284 c -1.56921,-0.145 -2.28717,-0.3423 -2.13596,-0.58698 0.074,-0.11982 -0.0321,-0.44375 -0.23595,-0.71985 -0.297,-0.40232 -0.43717,-0.43633 -0.7059,-0.17127 -0.52814,0.52093 -0.86421,0.40511 -2.1766,-0.75009 -1.07467,-0.94596 -1.61556,-1.89081 -1.02944,-1.79826 0.51793,0.0818 0.55294,-0.076 0.1297,-0.58466 -0.25324,-0.30433 -0.73046,-0.65938 -1.06049,-0.789 -0.71086,-0.27921 -1.05938,-1.09394 -1.28343,-3.00025 -0.14971,-1.2738 -0.114,-1.41311 0.39646,-1.5466 0.64589,-0.1689 0.75046,-0.86067 0.16411,-1.08567 -0.54327,-0.20848 -0.49807,-0.6019 0.255,-2.21943 0.45428,-0.97576 0.79935,-1.38906 1.15973,-1.38906 0.51307,0 0.95156,-0.65444 0.70538,-1.05277 -0.0718,-0.1162 0.2756,-0.52108 0.77203,-0.89973 0.71186,-0.54296 1.08115,-0.65274 1.74746,-0.51948 0.76737,0.15348 0.82878,0.11833 0.6696,-0.3832 -0.30022,-0.94592 0.62969,-1.1933 3.9269,-1.04464 3.62295,0.16334 4.54594,0.46041 4.53218,1.45871 -0.009,0.63764 0.0808,0.71467 0.7727,0.66397 0.96591,-0.0708 1.51973,0.4028 2.83864,2.42734 0.81264,1.24742 0.99217,1.73419 0.86057,2.33333 -0.13643,0.62119 -0.0668,0.7831 0.38791,0.90201 0.48224,0.12611 0.55226,0.33845 0.53926,1.63542 -0.0211,2.10987 -0.48167,3.31945 -1.30798,3.4354 -0.85756,0.12034 -1.07672,0.50339 -0.72706,1.2708 0.33133,0.7272 0.0132,1.16542 -2.02397,2.78789 l -1.29582,1.03204 -0.74689,-0.71556 c -0.79084,-0.75768 -0.91656,-0.67721 -1.08027,0.69139 -0.0732,0.61187 -0.18819,0.6635 -1.53433,0.68873 -0.80036,0.015 -1.93145,-0.0167 -2.51354,-0.0705 z m 3.48942,-4.8371 c 1.28196,-0.58203 2.63441,-2.28767 2.88869,-3.64307 0.56376,-3.00512 -2.69986,-6.25014 -5.81599,-5.78284 -2.27434,0.34105 -4.40664,2.62473 -4.39275,4.70458 0.008,1.13821 0.83399,2.93068 1.70544,3.69915 1.81845,1.60357 3.61402,1.93046 5.61461,1.02218 z m -3.27385,-1.98246 c -0.97139,-0.43025 -1.67077,-1.60558 -1.67077,-2.8078 0,-1.1403 1.47771,-2.63251 2.60693,-2.63251 1.8473,0 2.94932,1.16796 2.94932,3.12578 0,0.76592 -0.18154,1.21693 -0.69753,1.73293 -0.38365,0.38365 -0.83013,0.69917 -0.99219,0.70115 -0.16206,0.002 -0.53278,0.0599 -0.82382,0.12868 -0.29104,0.0688 -0.90841,-0.0429 -1.37194,-0.24823 z m 10.23549,-34.01531 v -5.02708 h 1.5875 1.5875 v 5.02708 5.02708 h -1.5875 -1.5875 z m 0.52915,-8.76616 v -2.68073 l -0.92604,-0.87337 c -1.67916,-1.58366 -0.95132,-2.84415 0.92522,-1.60232 1.56313,1.03444 1.94033,1.96929 2.06789,5.12518 l 0.10962,2.71198 h -1.08835 -1.08834 z"
         style="fill:#e2e2e2;fill-opacity:1"
         id="path1-9" /><text
         xml:space="preserve"
         style="font-style:normal;font-variant:normal;font-weight:normal;font-stretch:normal;font-size:21.1667px;font-family:'Nimbus Roman';-inkscape-font-specification:'Nimbus Roman, ';text-align:start;writing-mode:lr-tb;direction:ltr;text-anchor:start;fill:#e2e2e2;fill-opacity:1;stroke:none;stroke-width:4.865;stroke-dasharray:none;stroke-opacity:1"
         x="-295.38275"
         y="284.61072"
         id="text10"><tspan
           id="tspan10"
           style="font-style:normal;font-variant:normal;font-weight:bold;font-stretch:condensed;font-size:21.1667px;font-family:'Noto Sans Gurmukhi Condensed';-inkscape-font-specification:'Noto Sans Gurmukhi Condensed,  Condensed';fill:#e2e2e2;fill-opacity:1;stroke-width:4.865"
           x="-295.38275"
           y="284.61072">EINES COMUNALS</tspan></text><g
         id="g2"><text
           xml:space="preserve"
           style="font-style:normal;font-variant:normal;font-weight:normal;font-stretch:normal;font-size:52.634px;font-family:'Nimbus Roman';-inkscape-font-specification:'Nimbus Roman, ';text-align:start;writing-mode:lr-tb;direction:ltr;text-anchor:start;fill:#ececec;fill-opacity:1;stroke:none;stroke-width:12.0975;stroke-dasharray:none;stroke-opacity:1"
           x="307.16269"
           y="58.565502"
           id="text10-2"><tspan
             id="tspan10-0"
             style="font-style:normal;font-variant:normal;font-weight:bold;font-stretch:condensed;font-size:52.634px;font-family:'Noto Sans Gurmukhi Condensed';-inkscape-font-specification:'Noto Sans Gurmukhi Condensed,  Condensed';fill:#ececec;fill-opacity:1;stroke-width:12.0975"
             x="307.16269"
             y="58.565502">COMUN-POP</tspan></text><path
           style="fill:#ececec"
           d="m 466.75982,16.98788 c -5.46307,-1.442591 -10.38637,-5.09469 -12.43247,-9.2223969 -3.61311,-7.28892895 -3.13687,-15.105879 1.24244,-20.3933711 3.82339,-4.616278 9.61326,-6.765719 13.13581,-4.876557 1.69973,0.911575 1.59361,1.771822 -0.35089,2.844468 -2.41951,1.33468 -5.16529,4.192433 -5.61589,5.8449061 -1.30138,4.772526 0.47076,9.54256105 4.27153,11.497585 1.95102,1.003559 5.56438,0.91548 7.9468,-0.193712 2.39181,-1.11356 4.80226,-3.607152 5.5534,-5.744937 0.9187,-2.614676 1.11551,-8.3021211 0.37592,-10.8637961 -0.90761,-3.14368 -2.51658,-5.90826 -4.72227,-8.11395 -1.93411,-1.934108 -1.9774,-2.021544 -2.19924,-4.441702 -0.20622,-2.249874 -0.348,-2.595701 -1.59905,-3.900542 -0.75501,-0.787483 -2.24588,-1.998039 -3.31304,-2.690126 -1.06715,-0.692087 -3.52777,-2.542194 -5.46805,-4.11135 -1.94028,-1.569156 -4.16278,-3.233403 -4.93889,-3.698326 -6.69342,-4.009634 -10.46159,-10.890624 -12.50473,-22.834642 -0.38363,-2.242636 -0.96338,-4.483299 -1.28834,-4.979251 -0.5707,-0.870995 -0.60758,-0.878835 -1.08203,-0.229984 -0.58792,0.804021 -0.82684,1.708707 -2.0909,7.917238 -1.21386,5.961941 -2.16752,8.81227 -4.18941,12.521479 -1.53738,2.820373 -3.58618,5.117409 -4.56438,5.117409 -1.00341,0 -6.1598,3.756274 -8.7933,6.405651 -1.5197,1.528864 -3.69934,3.415553 -4.84366,4.192643 -3.01304,2.046116 -3.85852,3.449534 -3.85852,6.404764 v 2.375387 l -2.41411,2.414108 c -5.41203,5.412027 -6.71734,12.2399331 -3.56923,18.6701221 2.75694,5.631185 9.22788,7.817526 14.0256,4.738837 2.62732,-1.68594495 3.72902,-4.034754 3.5353,-7.537227 -0.18908,-3.418865 -0.93534,-4.8379371 -4.24349,-8.0693421 -1.51138,-1.476321 -2.74796,-2.933949 -2.74796,-3.239172 0,-0.305224 0.48738,-0.901997 1.08306,-1.326163 2.9758,-2.118957 9.42841,0.854978 12.67848,5.843366 2.85924,4.3885391 3.65242,8.3431801 2.65842,13.25432015 -0.80219,3.96336995 -2.59236,7.29809595 -5.5203,10.28317085 -4.08347,4.163163 -8.85698,5.756954 -16.36772,5.464896 -3.1281,-0.121638 -4.72412,-0.354647 -6.11319,-0.892488 -9.14934,-3.542568 -15.9408,-14.1598289 -15.93275,-24.9080579 0.005,-6.1454091 1.01775,-10.2293751 3.97123,-16.0078781 2.70059,-5.283732 7.60584,-10.900827 13.31392,-15.246012 4.01378,-3.055435 5.84096,-4.695847 8.59758,-7.718797 4.81804,-5.283519 7.03209,-9.592905 7.62707,-14.845199 0.56537,-4.990779 -0.1066,-6.245711 -1.89626,-3.541352 -0.51321,0.775511 -2.22023,2.843945 -3.79338,4.59652 -2.48633,2.769909 -3.23524,3.36593 -5.72836,4.558969 -1.57744,0.754859 -4.43484,1.783328 -6.34978,2.285487 -1.91493,0.502159 -5.01055,1.52532 -6.87916,2.273691 -2.30711,0.923989 -4.67329,1.554568 -7.37281,1.964829 -2.18644,0.332286 -4.96188,1.005023 -6.16765,1.494972 -1.21256,0.492704 -3.77717,1.098843 -5.73858,1.356299 -1.95044,0.256016 -4.21503,0.733073 -5.03242,1.060128 -2.03723,0.815134 -4.85736,3.959689 -5.504,6.137164 -0.27736,0.933986 -1.04695,2.409076 -1.7102,3.277977 -1.77251,2.322116 -2.89311,6.093949 -2.62836,8.846796 0.11576,1.203693 0.46745,2.933789 0.78153,3.844658 0.73781,2.139718 3.00067,4.703458 4.62446,5.239358 1.87516,0.618859 4.5502,0.258686 5.64004,-0.759388 1.6998,-1.587879 1.98629,-2.580722 1.71903,-5.957417 -0.23659,-2.989319 -0.22085,-3.083419 0.54954,-3.28488 0.97202,-0.25419 2.37027,0.436022 3.8198,1.885545 2.21635,2.216349 2.76688,7.299046 1.13671,10.494449 -1.11408,2.183772 -4.11368,4.875972 -7.07612,6.350957 -2.57599,1.2825701 -2.70573,1.3078841 -6.52639,1.2734191 -4.38778,-0.03958 -6.54085,-0.6142601 -9.91453,-2.6463061 -4.2115,-2.536686 -7.73537,-8.944083 -8.4648,-15.39144 -0.47836,-4.228148 1.09187,-11.799488 3.39539,-16.371877 1.33207,-2.644108 4.87396,-7.002119 7.29108,-8.971087 5.851,-4.766197 13.40867,-7.851712 24.52967,-10.014559 6.78043,-1.318678 16.52015,-5.010762 20.57141,-7.7981 0.88674,-0.610091 2.5219,-2.005752 3.6337,-3.10147 4.46041,-4.395901 6.0363,-8.085542 6.0363,-14.132809 0,-4.64835 -0.47775,-6.367421 -2.85669,-10.27905 -5.57911,-9.173594 -7.311,-14.057484 -7.63973,-21.543854 -0.47781,-10.88176 3.49097,-21.28281 10.77722,-28.24406 3.40471,-3.25283 6.23677,-5.20369 10.43567,-7.18858 5.4624,-2.58217 8.24609,-3.15963 15.03631,-3.11918 7.05245,0.042 9.55744,0.61043 15.36034,3.48552 10.14902,5.0284 17.62685,14.74204 19.55945,25.40758 0.69227,3.82045 0.8272,12.38698 0.24538,15.57894 -0.61106,3.35233 -2.99722,9.04308 -4.76033,11.35288 -0.67117,0.87928 -2.04872,2.993965 -3.06123,4.699301 -1.44671,2.43665 -1.93722,3.663567 -2.29061,5.729543 -0.91374,5.341734 0.18917,11.384609 2.75974,15.120809 1.62115,2.35626 5.49489,5.788969 7.90652,7.006358 5.13656,2.592928 13.87442,5.492916 21.14337,7.017224 2.65534,0.55683 5.51284,1.190532 6.34999,1.408225 5.10835,1.32838 12.21079,4.540383 15.98598,7.229491 4.32331,3.079533 8.76558,8.530319 10.91739,13.395935 1.63556,3.698304 2.09584,6.040298 2.1163,10.768232 0.0163,3.754548 -0.10878,4.800191 -0.84155,7.037822 -0.96459,2.945506 -3.43224,6.856473 -5.72813,9.078498 -4.39256,4.251229 -12.76396,5.6554371 -18.28206,3.066609 -3.3179,-1.556597 -6.06187,-4.214044 -7.63233,-7.391646 -1.19439,-2.41668 -1.27227,-2.765981 -1.06303,-4.76783 0.29254,-2.798902 1.59671,-5.198002 3.49465,-6.428654 2.61706,-1.696933 2.77597,-1.525222 2.65765,2.871865 -0.0999,3.713259 -0.0753,3.855478 0.8856,5.115649 1.41147,1.851066 2.80797,2.482939 4.93166,2.231418 7.7692,-0.920146 9.80194,-10.590004 3.94285,-18.756348 -1.07008,-1.491473 -2.18669,-3.291094 -2.48136,-3.999159 -0.80666,-1.938357 -3.21187,-4.193137 -5.31045,-4.978318 -1.0078,-0.377063 -3.63232,-0.928284 -5.83227,-1.224935 -2.19995,-0.296651 -4.97883,-0.85122 -6.17529,-1.232376 -1.19646,-0.381155 -3.97458,-1.028504 -6.17361,-1.438552 -2.76322,-0.515252 -5.08793,-1.226836 -7.52601,-2.303676 -1.94028,-0.856973 -5.52108,-2.192908 -7.95733,-2.968744 -6.77526,-2.157613 -10.5804,-4.961697 -13.01373,-9.590077 -0.64921,-1.234835 -1.34167,-2.451106 -1.5388,-2.702825 -0.59281,-0.756966 -0.93843,0.206034 -0.94446,2.631498 -0.0175,7.059252 3.30741,14.099334 9.16682,19.409354 1.06715,0.967095 4.24215,3.586966 7.05555,5.821937 13.82297,10.980981 19.20101,20.406654 18.58194,32.5670991 -0.34979,6.870721 -2.00994,11.365073 -6.07976,16.459078 -3.60744,4.5152529 -7.11327,6.8697169 -12.5399,8.4216109 -3.28841,0.94041 -9.27895,1.230005 -11.78033,0.569484 z M 432.1876,-96.610176 c 0.97014,-0.455674 2.03565,-1.13462 2.3678,-1.50877 1.72354,-1.941484 2.2097,-5.841114 1.01792,-8.165034 -1.37136,-2.67409 -3.65464,-3.95469 -7.05113,-3.95469 -1.82605,0 -2.3001,0.15075 -3.6273,1.15355 -1.97064,1.48897 -2.91556,3.40021 -2.91795,5.902 -0.003,3.258777 1.79283,5.761036 4.93939,6.881947 1.99001,0.708907 3.26299,0.634285 5.27127,-0.309003 z m -5.03678,-4.299894 c -0.93618,-0.65572 -1.0572,-2.43164 -0.24475,-3.59158 0.64661,-0.92316 2.62661,-1.3694 3.6488,-0.82234 1.23161,0.65913 1.53948,1.61177 0.96514,2.98636 -0.80462,1.92572 -2.75034,2.561454 -4.36919,1.42756 z m 35.51776,4.204356 c 4.173,-2.07949 5.09894,-7.558756 1.87956,-11.122226 -1.68096,-1.86063 -2.84792,-2.41189 -5.09094,-2.40493 -5.64233,0.0175 -8.7724,6.35893 -5.60442,11.354332 1.91644,3.02191 5.3926,3.878677 8.8158,2.172824 z m -5.06098,-4.439236 c -1.9475,-2.78044 1.4996,-6.01869 3.87659,-3.6417 0.99881,0.99881 1.069,1.59862 0.34979,2.98941 -0.85836,1.65989 -3.26091,2.030694 -4.22638,0.65229 z m -39.26653,74.842102 c -1.01083,-0.388114 -1.0078,-1.314745 0.009,-2.832968 1.6556,-2.471361 7.29447,-3.266537 7.60498,-1.07243 0.29982,2.118536 -5.08062,4.878196 -7.61425,3.905398 z m 48.377,-1.166524 c -2.14779,-1.010315 -3.08686,-2.13946 -2.57489,-3.096071 0.51928,-0.970293 2.62882,-0.823468 4.70346,0.327364 2.07614,1.151662 2.66121,1.932255 2.10913,2.813982 -0.57871,0.924255 -2.21376,0.906787 -4.2377,-0.04528 z m -9.49178,-6.384052 c -4.29427,-2.237397 -5.38339,-3.947561 -3.47167,-5.451317 1.27328,-1.001564 1.87274,-0.931701 4.91562,0.572888 3.35473,1.658784 4.03264,2.29452 4.03264,3.781776 0,2.457317 -2.06962,2.871746 -5.47659,1.096653 z m -30.62846,-0.124839 c -0.90082,-0.995402 -0.69999,-2.037414 0.65357,-3.390971 1.40493,-1.404939 4.3124,-2.422069 6.42484,-2.247626 1.2069,0.09967 1.34376,0.214661 1.44069,1.2106 0.13404,1.37716 -1.22605,2.836849 -3.87173,4.155248 -2.1662,1.079462 -3.82899,1.17705 -4.64737,0.272749 z m -51.38384,-5.807086 c -1.07259,-0.540711 -1.29341,-1.68048 -0.54645,-2.82049 0.77433,-1.181771 4.16806,-2.765869 6.08059,-2.83824 1.33572,-0.05054 1.71503,0.09439 2.43382,0.929934 1.05845,1.230391 1.05671,1.357995 -0.0362,2.65684 -0.56735,0.674258 -1.67416,1.320549 -3.06711,1.790956 -2.50007,0.844286 -3.61905,0.908923 -4.86465,0.281 z m 133.74392,-0.289043 c -4.99188,-0.846444 -7.00469,-4.15978 -3.2165,-5.29475 2.77558,-0.831582 8.11424,1.457927 8.11424,3.479825 0,1.608224 -1.92025,2.3198 -4.89774,1.814925 z m -14.67078,-3.192861 c -3.07169,-1.037877 -4.06759,-1.847472 -4.06759,-3.306646 0,-1.571927 0.9271,-2.077332 3.35158,-1.827103 3.78527,0.390675 6.5262,1.836676 6.5262,3.442959 0,0.830975 -1.97036,2.459276 -2.93749,2.427539 -0.42167,-0.01384 -1.71439,-0.345375 -2.8727,-0.736749 z m -106.03822,-0.491826 c -0.78638,-0.837058 -0.8095,-0.966634 -0.32608,-1.827014 0.71271,-1.268445 3.53698,-2.600249 5.98489,-2.822219 1.74536,-0.158262 2.13565,-0.07877 2.78079,0.566377 0.41277,0.412764 0.75048,1.112031 0.75048,1.553928 0,1.529676 -0.92142,2.283857 -3.50946,2.872495 -3.51969,0.800537 -4.67122,0.730893 -5.68062,-0.343567 z m 93.61284,-3.128869 c -0.81324,-0.258299 -2.51981,-1.234125 -3.79236,-2.1685 -1.85909,-1.365036 -2.31374,-1.886043 -2.31374,-2.651416 0,-1.115309 0.51868,-1.380814 2.69748,-1.380814 1.74199,0 4.61026,1.063198 6.38381,2.366323 3.0054,2.208232 0.81062,5.036844 -2.97519,3.834407 z m -80.27762,-0.456622 c -0.90292,-1.000947 -0.76139,-1.719659 0.52917,-2.687249 2.72898,-2.046038 7.00516,-3.439052 8.34909,-2.719807 1.06935,0.5723 0.95676,2.141598 -0.23521,3.27843 -1.28562,1.226157 -4.07888,2.398306 -6.2618,2.627673 -1.44775,0.15212 -1.87454,0.06268 -2.38125,-0.499047 z m 121.61031,-17.495109 c -1.3636,-0.618963 -3.06165,-1.472198 -3.77345,-1.896079 -1.58656,-0.944809 -3.32385,-3.276475 -3.82333,-5.131399 -0.9185,-3.411023 0.39778,-4.395704 3.79619,-2.83986 1.26033,0.576995 2.85846,0.969371 4.39639,1.07941 2.18819,0.156564 2.63115,0.0671 4.6927,-0.947798 3.975,-1.956889 5.83698,-5.001052 5.83051,-9.532364 -0.003,-1.917141 -0.18301,-2.631723 -1.04158,-4.128659 -2.06202,-3.59519 -5.61483,-5.809855 -10.35772,-6.456541 -3.67413,-0.500963 -5.57077,-0.466663 -8.52933,0.15425 -3.63199,0.762244 -6.14784,1.793734 -8.24329,3.379716 -1.02371,0.774818 -3.08026,1.888191 -4.57011,2.474162 -1.48986,0.585972 -4.53867,2.079895 -6.77515,3.319831 -2.23647,1.239935 -5.49085,2.756206 -7.23194,3.369491 -3.4773,1.224849 -5.76952,2.581545 -6.35884,3.763607 -0.37696,0.75612 -0.39636,0.757733 -1.44479,0.12015 -2.78152,-1.691548 -4.418,-5.108463 -4.46181,-9.316132 -0.042,-4.038327 0.0164,-4.113114 3.21456,-4.116031 3.23869,-0.003 7.49593,-0.963789 12.03533,-2.716308 2.72743,-1.052975 3.95581,-1.798785 6.80839,-4.133693 5.83415,-4.775394 12.6542,-8.183634 19.14431,-9.567144 4.15461,-0.88565 10.83294,-0.81895 14.46389,0.14445 4.79524,1.27232 8.42925,3.29979 11.46421,6.39605 4.08661,4.169145 5.95418,7.818203 6.72172,13.133611 0.76239,5.279698 -0.42712,10.142607 -3.84799,15.731227 l -0.93239,1.523223 -1.68695,1.560368 c -0.46221,0.427529 -1.3033,1.300394 -3.46135,2.706417 -1.21652,0.792592 -11.31589,2.81305 -11.51183,2.81305 -0.19594,0 12.7357,-3.886644 11.55157,-2.815062 -3.6592,3.31138 -12.04155,3.755704 -16.06792,1.928057 z m 13.58859,-3.945413 c 13.16211,-5.120037 -167.60437,65.1977808 0,0 z m -52.28726,-6.020162 c -1.52605,-0.828158 -1.84304,-1.744408 -0.90563,-2.617734 0.81288,-0.757311 4.7115,-2.124022 6.0589,-2.124022 2.04052,0 3.10351,2.3696 1.65219,3.683033 -1.62456,1.470204 -5.06185,2.004943 -6.80546,1.058723 z m -80.97136,-1.82996 c -1.65756,-0.554045 -1.85665,-1.067944 -0.78829,-2.034799 0.83011,-0.751232 3.96256,-1.105049 5.2862,-0.597087 l 0.88195,0.338453 -1.29731,1.230477 c -1.62132,1.537795 -2.20629,1.690102 -4.08255,1.062956 z m 93.83619,-2.380537 c -2.67298,-1.1617 -2.02113,-3.854584 1.34309,-5.54851 2.30079,-1.158475 4.29354,-1.2526 5.89154,-0.278282 1.28698,0.784689 1.40958,1.389977 0.56955,2.812037 -0.61743,1.045215 -1.91203,1.944113 -4.18348,2.904758 -1.73069,0.731943 -2.15966,0.744975 -3.6207,0.109997 z m -107.85911,-2.023338 c -2.31249,-0.822554 -5.11528,-3.232428 -5.11528,-4.398189 0,-0.702477 1.94487,-1.518763 3.59846,-1.510317 1.89529,0.0097 4.15688,1.012641 5.16052,2.288563 0.84598,1.075493 1.00958,2.71567 0.32505,3.258939 -0.72129,0.572445 -2.83403,0.764624 -3.96875,0.361004 z m 16.75695,-0.600598 c -4.94529,-1.154263 -6.65416,-1.792261 -8.88485,-3.317102 -1.22521,-0.837522 -4.5341,-3.101706 -7.35309,-5.03152 -11.09035,-7.592184 -15.8164,-12.186421 -20.42631,-19.856591 -1.8915,-3.14715 -2.84636,-6.42317 -3.55939,-12.21183 -0.80206,-6.51134 0.82424,-12.318 5.1537,-18.4012 2.06509,-2.90161 3.9698,-4.47736 7.46246,-6.17364 7.36261,-3.57578 14.41012,-2.7018 19.83435,2.45972 2.45705,2.33805 2.78861,3.67199 1.28615,5.17445 -1.4047,1.4047 -3.15744,1.50939 -5.4689,0.32667 -3.61408,-1.84925 -8.01521,-1.0347 -11.25555,2.08317 -3.94287,3.79385 -4.96932,10.60637 -2.58133,17.13231 1.42465,3.89331 2.63985,5.71551 5.9424,8.91062 3.05041,2.95117 10.66459,8.12314 14.20591,9.64943 4.43589,1.911848 10.41531,5.056111 11.1772,5.877505 1.0808,1.16522 1.52379,2.522123 1.51667,4.645735 -0.0151,4.506642 -1.94451,9.455361 -3.65782,9.381834 -0.41017,-0.0176 -1.9364,-0.309905 -3.3916,-0.649561 z m 103.50232,-5.145144 c -0.65611,-0.656104 -0.85909,-1.185528 -0.77772,-2.028472 0.0928,-0.9612 0.38761,-1.291979 1.874,-2.102549 3.01027,-1.641584 6.52639,-1.17049 6.52639,0.874415 0,0.907727 -1.79587,2.781377 -3.3368,3.481324 -1.98153,0.900084 -3.22634,0.834816 -4.28587,-0.224718 z m -133.48843,-3.014638 c -2.84666,-1.56611 -2.97712,-1.746704 -2.34854,-3.25111 0.65958,-1.578598 1.52344,-2.048285 3.26908,-1.777426 2.84393,0.441274 5.78223,2.476782 5.78223,4.005642 0,0.732273 -2.45643,2.104937 -3.75219,2.096741 -0.55567,-0.0035 -1.88343,-0.486746 -2.95058,-1.073847 z m 102.65923,-6.202157 c 5e-4,-0.16628 0.56836,-1.243412 1.26193,-2.393627 4.58218,-7.599187 6.14105,-12.963847 6.14408,-21.144127 l 10e-4,-3.83265 1.70877,-1.98818 c 4.85836,-5.65279 11.35294,-15.14544 12.39975,-18.1238 0.45638,-1.29848 0.90599,-4.17009 1.2581,-8.03541 0.30136,-3.30816 0.77175,-6.64922 1.04531,-7.42458 2.19878,-6.23201 9.65512,-11.1967 16.9857,-11.30968 3.35972,-0.0518 3.67951,0.48069 1.79195,2.98373 -0.63059,0.83621 -1.91606,2.53944 -2.8566,3.78495 -2.09764,2.7778 -4.46353,6.77916 -4.46353,7.54902 0,0.31342 0.30412,1.16599 0.67582,1.89458 1.9741,3.86956 9.80742,8.05105 11.51592,6.1473 0.52499,-0.58499 2.33662,-3.25238 6.65126,-9.79318 2.3644,-3.58431 2.66897,-3.84653 3.66086,-3.15179 1.13709,0.79645 1.8378,3.67565 1.8378,7.55142 0,4.06134 -0.63472,6.72268 -2.32359,9.74267 -2.59132,4.6337 -5.8852,7.24807 -10.37641,8.2358 -2.09201,0.46008 -2.19779,0.49931 -5.66658,2.10175 -2.82513,1.30509 -5.66924,4.04314 -8.62092,8.29943 -1.16416,1.67872 -3.22791,4.55822 -4.58611,6.39889 -1.35819,1.84067 -3.34257,4.61592 -4.40972,6.16721 -1.06715,1.5513 -2.91034,4.13238 -4.09598,5.73573 -1.18564,1.60336 -2.43469,3.46603 -2.77568,4.13926 -1.24215,2.4525 -2.24945,3.477549 -3.6302,3.694143 -0.72391,0.113557 -2.82432,0.586861 -4.66758,1.051786 -1.84327,0.464925 -4.22452,1.00209 -5.29167,1.193699 -1.06715,0.191609 -2.21809,0.456291 -2.55764,0.588181 -0.33955,0.131891 -0.61695,0.103754 -0.61645,-0.06253 z m 11.54558,-12.305094 c 1.18542,-0.8303 13.66223,-17.00131 14.04296,-18.20087 0.11598,-0.36543 0.10955,-0.98366 -0.0143,-1.37384 -0.29279,-0.9225 -2.14798,-1.87261 -3.16035,-1.61852 -0.93077,0.23361 -3.09928,2.82061 -7.86555,9.3835 -5.31263,7.3152 -5.79189,8.07611 -5.98271,9.4988 -0.15216,1.13443 -0.0385,1.43439 0.79073,2.08665 1.15339,0.90727 1.20637,0.91269 2.18921,0.22428 z m 31.23903,-26.27362 c 2.02204,0 1.32266,-0.48764 -1.98347,-1.38298 -6.87273,-1.86122 -11.05281,-5.08058 -14.86763,-11.45057 -1.26407,-2.11074 -2.29831,-3.5959 -2.29831,-3.30035 0,0.82468 1.41212,5.21987 2.13145,6.63412 1.77308,3.48594 5.79521,7.18834 9.2565,8.52066 1.93025,0.74299 5.03781,1.33392 5.83882,1.11029 0.2584,-0.0721 1.12359,-0.13117 1.92264,-0.13117 z"
           id="path2" /></g></g></g></svg>
